<svg width="24" height="18" viewBox="0 0 24 18" fill="none" xmlns="http://www.w3.org/2000/svg">
<path fill-rule="evenodd" clip-rule="evenodd" d="M9.1438 3.60143C10.283 4.41406 11.4605 5.30594 12.5913 6.1643C13.7333 7.03224 14.8921 7.86721 16.001 8.70696C14.013 10.0445 12.0166 11.3342 10.0015 12.6526C9.71854 12.8366 9.44961 13.0605 9.1438 13.2014V3.60143ZM0.00673312 4.98335V13.0917C0.00673312 14.0456 -0.0388403 14.9471 0.177138 15.6146C0.392126 16.2774 0.780491 16.8109 1.2387 17.1978C1.71376 17.5972 2.2651 17.8888 3.0765 17.9584C3.84035 18.0228 4.73498 17.9789 5.61524 17.9789H18.4036C19.2635 17.9789 20.1344 18.038 20.9616 17.9584C22.4249 17.8176 23.4325 16.8449 23.8223 15.5759C24.0339 14.888 23.9927 13.9864 23.9927 13.0525V4.94304C23.9927 3.98185 24.0537 3.15363 23.8223 2.41964C23.6163 1.76576 23.2561 1.2281 22.7811 0.818176C22.3154 0.416631 21.7765 0.108274 20.9616 0.0370744C20.1576 -0.0320311 19.2591 0.0166569 18.4229 0.0166569H5.63407C4.78898 0.0166569 3.8141 -0.0304605 3.03886 0.0370744C1.59933 0.162721 0.524388 1.17941 0.15881 2.44006C-0.0487476 3.15363 0.00673312 4.06823 0.00673312 4.98335Z" fill="white" fill-opacity="0.2"/>
</svg>
