<svg width="22" height="18" viewBox="0 0 22 18" fill="none" xmlns="http://www.w3.org/2000/svg">
<mask id="mask0_4052_2429" style="mask-type:luminance" maskUnits="userSpaceOnUse" x="0" y="0" width="22" height="18">
<path fill-rule="evenodd" clip-rule="evenodd" d="M0 0H22V18H0V0Z" fill="white"/>
</mask>
<g mask="url(#mask0_4052_2429)">
<path fill-rule="evenodd" clip-rule="evenodd" d="M22 1.44622C21.8844 1.94953 21.7641 2.45183 21.6541 2.95632C20.9432 6.21875 20.2346 9.48168 19.5249 12.7444C19.2192 14.1495 18.9158 15.5552 18.603 16.9588C18.5624 17.1412 18.4899 17.3224 18.4006 17.4876C18.1615 17.9292 17.7678 18.0957 17.2832 17.9467C17.0623 17.8787 16.8397 17.7793 16.653 17.6465C15.0719 16.5215 13.4989 15.3855 11.9234 14.253C11.8664 14.212 11.8079 14.1728 11.7399 14.1257C11.6876 14.1696 11.6382 14.2072 11.5931 14.2494C10.7797 15.0104 9.96622 15.7713 9.1542 16.5339C8.91227 16.761 8.63696 16.8977 8.27512 16.8772C8.30507 16.4379 8.33256 16.0127 8.36336 15.5878C8.4279 14.6981 8.49409 13.8085 8.55983 12.9189C8.57019 12.7788 8.60741 12.6354 8.58869 12.4993C8.51791 11.9864 8.8116 11.689 9.17035 11.3751C12.0869 8.82213 14.9895 6.25373 17.8963 3.68988C17.9389 3.65231 17.9941 3.62065 18.0193 3.57374C18.0653 3.48769 18.0932 3.39231 18.1288 3.3008C18.0307 3.27375 17.9221 3.20659 17.8365 3.22797C17.6602 3.27189 17.4834 3.34309 17.3288 3.43786C13.5401 5.76116 9.75418 8.08879 5.96864 10.4171C5.86231 10.4825 5.77103 10.5187 5.63452 10.4764C4.02852 9.97852 2.41891 9.49203 0.813018 8.99373C0.618731 8.93343 0.42536 8.84333 0.25913 8.72854C-0.0533439 8.5128 -0.0909645 8.19695 0.188585 7.94189C0.393351 7.75505 0.641292 7.58925 0.900055 7.4883C2.25308 6.96035 3.61532 6.4553 4.97499 5.94378C10.1402 4.00084 15.3055 2.05785 20.4722 0.118797C20.6366 0.0570996 20.8158 0.0164929 20.9911 0.00327607C21.4558 -0.0317064 21.8006 0.215252 21.9427 0.658833C21.9594 0.711081 21.9808 0.76198 22 0.813498V1.44622Z" fill="white" fill-opacity="0.2"/>
</g>
</svg>
