<svg width="24" height="24" viewBox="0 0 24 24" fill="none" xmlns="http://www.w3.org/2000/svg">
<path d="M21.2347 15.4405C19.8878 15.4405 18.5653 15.2298 17.312 14.8157C16.6979 14.6062 15.943 14.7984 15.5682 15.1833L13.0945 17.0507C10.2257 15.5193 8.45863 13.7528 6.94819 10.9056L8.76061 8.49633C9.23149 8.02608 9.40039 7.33915 9.19804 6.69462C8.7821 5.43478 8.57081 4.11289 8.57081 2.76539C8.57086 1.79194 7.77892 1 6.80554 1H2.76533C1.79194 1 1 1.79194 1 2.76533C1 13.9229 10.0772 23 21.2347 23C22.2081 23 23.0001 22.2081 23.0001 21.2347V17.2058C23 16.2324 22.2081 15.4405 21.2347 15.4405Z" fill="white"/>
</svg>
