<svg width="20" height="20" viewBox="0 0 20 20" fill="none" xmlns="http://www.w3.org/2000/svg">
<g clip-path="url(#clip0_4052_2427)">
<path d="M18.7576 9.59456C18.7592 9.59456 18.7604 9.59456 18.762 9.59456C18.8736 9.59456 18.98 9.54776 19.0556 9.46576C19.1324 9.38256 19.1704 9.27096 19.1604 9.15816C18.7588 4.74096 15.2616 1.24256 10.844 0.840156C10.732 0.831356 10.6192 0.867756 10.536 0.944956C10.4528 1.02176 10.4064 1.13016 10.4076 1.24336C10.4772 7.11376 11.2516 9.51256 18.7576 9.59456ZM18.7576 10.4058C11.2516 10.4878 10.4776 12.8866 10.408 18.757C10.4068 18.8702 10.4532 18.9786 10.5364 19.0554C10.6108 19.1238 10.708 19.1618 10.808 19.1618C10.82 19.1618 10.8324 19.1614 10.8444 19.1602C15.262 18.7578 18.7592 15.2598 19.1604 10.8422C19.1704 10.7294 19.1328 10.6178 19.0556 10.5346C18.9784 10.4514 18.8708 10.4102 18.7576 10.4058ZM9.12919 0.842156C4.72559 1.25616 1.23959 4.75376 0.839986 9.15896C0.829986 9.27176 0.867586 9.38336 0.944786 9.46656C1.02039 9.54856 1.12719 9.59496 1.23839 9.59496C1.23999 9.59496 1.24159 9.59496 1.24319 9.59496C8.72439 9.50896 9.49679 7.11136 9.56719 1.24496C9.56839 1.13176 9.52159 1.02296 9.43839 0.946156C9.35439 0.869356 9.24199 0.831756 9.12919 0.842156ZM1.24279 10.4054C1.11839 10.3914 1.02079 10.4506 0.944386 10.5338C0.867586 10.617 0.829586 10.7286 0.839586 10.8414C1.23919 15.2466 4.72559 18.7442 9.12919 19.1582C9.14159 19.1594 9.15439 19.1598 9.16679 19.1598C9.26679 19.1598 9.36359 19.1222 9.43799 19.0538C9.52118 18.977 9.56799 18.8682 9.56679 18.755C9.49639 12.889 8.72439 10.4914 1.24279 10.4054Z" fill="white" fill-opacity="0.2"/>
</g>
<defs>
<clipPath id="clip0_4052_2427">
<rect width="20" height="20" fill="white"/>
</clipPath>
</defs>
</svg>
