<svg width="86" height="14" viewBox="0 0 86 14" fill="none" xmlns="http://www.w3.org/2000/svg">
<g clip-path="url(#clip0_4052_2457)">
<path d="M74.7475 3.87603C75.1865 3.87603 75.5707 3.93388 75.8451 3.93388L75.406 5.78512C75.1316 5.72727 74.8023 5.66942 74.4731 5.66942C74.0889 5.66942 73.7048 5.72727 73.4303 5.84297V14L71.3448 13.5372V4.5124C72.2229 4.16529 73.4303 3.87603 74.7475 3.87603ZM64.7043 3.87603C66.8446 3.87603 68.052 4.7438 68.052 7.05785V12.4959C67.5581 12.7851 66.2958 13.1322 65.0335 13.1322C62.509 13.1322 61.2468 12.0909 61.2468 10.2975C61.2468 7.86777 63.6067 7.40496 66.1312 7.2314V6.7686C66.1312 5.84298 65.5275 5.49587 64.5396 5.49587C63.7713 5.49587 62.7835 5.78513 62.1798 6.01653L61.6309 4.5124C62.3444 4.22314 63.4969 3.87603 64.7043 3.87603ZM40.5568 3.81818C42.8618 3.81818 44.124 5.43802 44.124 7.86777C44.1789 8.09917 44.1789 8.38843 44.124 8.61983L38.7458 9.3719C38.9104 10.6446 39.8433 11.3388 41.0507 11.3388C41.8739 11.3388 42.8069 11.1074 43.3557 10.7603L43.9594 12.438C43.2459 12.843 42.0934 13.0744 40.8861 13.0744C38.142 13.0744 36.6602 11.1653 36.6602 8.44628C36.6602 5.72727 38.0872 3.81818 40.5568 3.81818ZM32.8735 1.44628V4.04959H34.465V5.72727H32.8735V10.124C32.8735 10.8182 33.3125 11.1074 33.8613 11.1074C34.0808 11.1074 34.3004 11.0496 34.465 10.9917V12.843C34.1906 12.9008 33.6419 13.0165 33.1479 13.0165C31.5564 13.0165 30.7881 12.0909 30.7881 10.2397V5.72727H29.7453V4.04959H30.7881V2.08265L32.8735 1.44628ZM16.9581 0V4.28099C17.452 4.04959 18.1106 3.87603 18.7143 3.87603C20.69 3.87603 21.7876 4.91735 21.7876 6.8843V12.9008H19.7021V7.1157C19.7021 6.13223 19.1534 5.66942 18.1655 5.66942C17.7265 5.66942 17.2874 5.78513 16.9581 6.01653V12.9587H14.8726V0H16.9581ZM55.5941 3.87603C57.46 3.87603 58.5576 5.03306 58.5576 6.82645V12.9587H56.4722V7C56.4722 6.13223 55.9234 5.61157 55.1002 5.61157C54.5514 5.61157 54.1672 5.78512 53.8379 6.07438V12.9008H51.6976V6.8843C51.6976 6.07438 51.1488 5.61157 50.2158 5.61157C49.7219 5.61157 49.3377 5.66942 49.0633 5.84297V12.9008H46.9779V4.5124C47.856 4.16529 48.9535 3.87603 50.106 3.87603C51.4781 3.87603 52.3012 4.33884 52.7952 4.80165C53.344 4.39669 54.3318 3.87603 55.5941 3.87603ZM2.14038 4.04959L3.29281 9.4876C3.45745 10.124 3.51237 10.9339 3.51237 10.9339H3.56722C3.56722 10.9339 3.67699 10.124 3.84163 9.4876L5.21362 4.04959H7.13452L8.50651 9.4876C8.67115 10.124 8.78092 10.9339 8.78092 10.9339C8.78092 10.9339 8.83577 10.124 9.00041 9.4876L10.2078 4.04959H12.3481L9.8785 12.9008H7.68327L6.42106 7.86777C6.25642 7.28926 6.2015 6.53719 6.2015 6.53719H6.14665C6.14665 6.53719 6.03688 7.28926 5.87223 7.86777L4.60994 12.9008H2.41471L0 4.04959H2.14038ZM27.0562 4.04959V12.9008H24.9707V4.04959H27.0562ZM80.4001 0V7.92562H80.455L83.1991 4.04959H85.6687L82.6502 8.21487L85.8333 12.9008H83.4735L80.455 8.44628H80.4001V12.9008H78.3147V0H80.4001ZM66.186 8.61983C64.6494 8.67768 63.2774 8.85124 63.2774 10.1818C63.2774 10.9917 63.8811 11.5124 64.9787 11.5124C65.4177 11.5124 65.9665 11.4545 66.186 11.3388V8.61983ZM40.5568 5.49587C39.4592 5.49587 38.6909 6.36364 38.636 7.98347L42.1484 7.46281C42.1484 6.13223 41.4898 5.49587 40.5568 5.49587Z" fill="white" fill-opacity="0.2"/>
</g>
<defs>
<clipPath id="clip0_4052_2457">
<rect width="86" height="14" fill="white"/>
</clipPath>
</defs>
</svg>
