<svg width="78" height="95" viewBox="0 0 78 95" fill="none" xmlns="http://www.w3.org/2000/svg">
<g clip-path="url(#clip0_4052_2385)">
<path d="M57.117 91.379C45.1274 98.8094 33.1548 83.9371 21.1766 91.379C21.1709 92.859 21.1709 91.2591 21.1766 92.7285C33.1548 85.2922 45.1387 100.176 57.117 92.7285C57.1227 91.2476 57.117 92.8706 57.117 91.379Z" fill="white"/>
<path d="M5.37862 40.5336V35.3352L5.03396 35.375C4.79666 35.4034 4.5537 35.4149 4.31075 35.4149C4.10734 35.4149 3.89829 35.4034 3.68924 35.3864C3.23723 35.3465 2.81347 35.2498 2.43492 35.1017C2.06201 34.9593 1.72865 34.7487 1.44615 34.4867C1.1693 34.2306 0.988486 33.923 0.881138 33.5359C0.745536 33.1146 0.677734 32.6705 0.677734 32.2035V30.4157L0.705985 19.4893H2.24282L2.21456 30.6264L2.24282 32.3231C2.24282 32.716 2.33322 33.0462 2.50271 33.3081C2.67222 33.5643 2.89823 33.7637 3.17507 33.9003C3.43498 34.0313 3.74009 34.1167 4.08474 34.1452C4.226 34.1565 4.36725 34.1622 4.51415 34.1622C4.70626 34.1622 4.90401 34.1509 5.10176 34.128L5.37862 34.0996V19.4949H6.91544V40.5336H5.37862Z" fill="white"/>
<path d="M34.3465 40.6412C34.0923 40.6412 33.8154 40.6185 33.5217 40.5786C33.2278 40.5388 32.9397 40.4819 32.6572 40.4135C32.3916 40.3509 32.1826 40.2769 32.03 40.1971C31.3067 39.8328 30.7361 39.3772 30.3406 38.8477C29.9338 38.3011 29.6174 37.7033 29.4027 37.0713C29.1823 36.4279 29.0467 35.7502 28.9959 35.0442C28.945 34.3212 28.9167 33.6151 28.9167 32.9375V27.9668C28.9167 27.107 28.9281 26.2359 28.945 25.3647C28.962 24.5277 29.0863 23.7363 29.3236 23.0075C29.5552 22.2958 29.9338 21.6523 30.4479 21.0887C30.9621 20.5307 31.7419 20.0808 32.7701 19.745L33.1205 19.6596C33.29 19.614 33.4821 19.5741 33.6855 19.5286C33.8889 19.4887 34.0923 19.4545 34.3013 19.426C34.4031 19.4147 34.4992 19.409 34.5951 19.4033L34.6799 20.5136C33.7702 20.6161 33.0358 20.8097 32.4933 21.083C31.8661 21.4019 31.3971 21.863 31.0864 22.4609C30.787 23.036 30.6062 23.7648 30.5383 24.6303C30.4762 25.4559 30.4479 26.4694 30.4479 27.6423V32.4308C30.4479 32.5902 30.4536 32.8464 30.4593 33.1938C30.4705 33.5468 30.4875 33.9453 30.5271 34.3894C30.561 34.8393 30.6231 35.3175 30.7135 35.8072C30.8039 36.3083 30.9338 36.7865 31.0921 37.2363C31.256 37.6919 31.465 38.1018 31.7023 38.4548C31.9679 38.842 32.3068 39.1153 32.7193 39.2577C33.0244 39.3658 33.3295 39.4626 33.6347 39.5423C33.7533 39.5765 33.8776 39.5879 34.0132 39.5879C34.1827 39.5879 34.3635 39.5652 34.5613 39.5139L34.5782 40.6242C34.533 40.6356 34.454 40.6412 34.3465 40.6412Z" fill="white"/>
<path d="M44.1381 40.5337V20.6452H41.9855V19.4951H48.0141V20.6452H45.6467V40.5337H44.1381Z" fill="white"/>
<path d="M19.5773 19.4951V21.4367C18.2777 21.6474 17.1082 23.1391 16.3115 24.944V19.4951H14.7747V40.5337H16.3115V28.5254C16.6392 25.8209 18.2044 22.8658 19.5773 22.4558V40.528H21.0858V19.4951H19.5773Z" fill="white"/>
<path d="M75.0444 39.6228V26.9027H77.6152V25.986H75.0444V25.9917V20.5655H77.5926V19.4951H73.5076V40.5337H77.6152V39.6228H75.0444Z" fill="white"/>
<path d="M9.77453 75.402V55.5704H6.4805L6.5031 75.402H4.97192V54.3633H11.2831V75.402H9.77453Z" fill="white"/>
<path d="M64.1399 19.4951H65.6768V40.5338H64.1399V19.4951ZM57.1734 39.2526L57.5349 39.19C57.8909 39.133 58.2073 39.0135 58.4729 38.8427C58.7271 38.6833 58.9531 38.4954 59.1509 38.2904C59.343 38.0854 59.5012 37.8805 59.6255 37.6641C59.7385 37.4704 59.8402 37.3054 59.9249 37.1687C60.1735 36.7075 60.3656 36.178 60.5012 35.5801C60.6368 34.9994 60.7273 34.3673 60.7725 33.7069C60.8177 33.0521 60.8233 32.3688 60.7838 31.6742C60.7499 30.9796 60.6651 30.2849 60.5409 29.6244C60.3092 28.3774 59.9306 27.3241 59.4221 26.5042C58.8967 25.6558 58.2808 25.0921 57.5858 24.8416L57.1734 24.6936V39.2526ZM55.6648 19.5178H57.1734V23.384L57.3655 23.4636C57.7723 23.6345 58.1565 23.8224 58.5181 24.016C58.8684 24.2096 59.2017 24.4317 59.5068 24.6878C59.8119 24.9384 60.1057 25.2344 60.3826 25.5818C60.6595 25.9291 60.925 26.3333 61.1793 26.7946C61.394 27.176 61.5917 27.6885 61.7669 28.3148C61.9477 28.9468 62.0833 29.6528 62.1794 30.4102C62.2754 31.1674 62.3149 31.9759 62.3093 32.813C62.3037 33.6443 62.2133 34.4699 62.055 35.267C61.8912 36.0584 61.6482 36.8213 61.3262 37.5274C61.0097 38.2221 60.5916 38.8256 60.0775 39.3267C59.7498 39.6455 59.3204 39.8847 58.8119 40.0441C58.2695 40.2149 57.7327 40.3458 57.2242 40.4313C56.9417 40.4654 56.6366 40.4939 56.3202 40.5223C56.1055 40.5395 55.8908 40.5508 55.6704 40.5565V19.5178H55.6648Z" fill="white"/>
<path d="M20.8091 70.3801C20.8091 70.3801 21.9392 70.0328 22.6002 69.247C23.0014 68.7688 23.3347 68.1481 23.6116 67.4251C23.8772 66.7133 24.0862 65.9048 24.2331 65.0223C24.3743 64.1454 24.4535 63.2571 24.4591 62.386C24.4648 61.5035 24.3969 60.6551 24.2557 59.8522C24.1088 59.0381 23.8772 58.332 23.5664 57.7626C23.4703 57.6089 23.3743 57.4438 23.2613 57.2502C23.137 57.0338 22.9788 56.8288 22.7867 56.6238C22.5945 56.4189 22.3686 56.2366 22.1086 56.0716C21.8375 55.9008 21.5211 55.7812 21.1708 55.7243L20.8091 55.6616V70.3801ZM19.3005 75.4021V54.3691C19.8373 54.3805 20.3628 54.4204 20.8656 54.4943C21.3685 54.5797 25.9395 55.3713 25.9395 62.1127C25.9395 62.9497 25.9055 63.7582 25.8095 64.5155C25.7135 65.2727 25.5779 65.9789 25.397 66.6108C25.2219 67.2371 25.0241 67.7439 24.8095 68.1311C24.5552 68.5922 24.2896 69.0022 24.0127 69.3439C23.7416 69.6855 23.4477 69.9872 23.1427 70.2378C22.8319 70.4883 22.4985 70.7161 22.1538 70.9097C21.7979 71.1089 21.408 71.2968 21.0012 71.4619L20.8091 71.5417V75.4078H19.3005V75.4021Z" fill="white"/>
<path d="M34.6915 75.4882C34.5728 75.4882 34.4542 75.4825 34.3299 75.4711C34.0418 75.4483 33.7649 75.4028 33.5163 75.3345C33.3863 75.3003 33.2677 75.2661 33.166 75.2263L33.5502 74.2128C33.635 74.247 33.7028 74.2754 33.7536 74.2925C33.8666 74.3381 34.0079 74.3608 34.1887 74.3608C34.2508 74.3608 34.3186 74.3608 34.3921 74.3494C34.7029 74.3267 34.9684 74.19 35.1774 73.9395C35.3526 73.7345 35.4994 73.4954 35.6069 73.2392C35.7085 72.9943 35.7933 72.7381 35.8441 72.4818C35.895 72.2484 35.9402 72.0605 35.9741 71.9239L35.991 71.8612L33.053 54.3926H34.5502L36.5843 67.8584L36.7368 67.8471L39.1946 54.3926H40.5676L37.3527 72.5957C37.234 73.2505 37.0589 73.8142 36.8272 74.2697C36.6069 74.7024 36.2735 75.0327 35.8046 75.2889C35.635 75.3743 35.4147 75.4369 35.1662 75.4654C35.0079 75.4768 34.8497 75.4882 34.6915 75.4882Z" fill="white"/>
<path d="M50.1783 74.019L51.653 57.6891L51.879 57.6776L53.0655 74.2239C53.5571 74.3378 54.0543 74.4118 54.5459 74.4004L52.444 54.2842H51.1841L48.7601 73.814C48.0313 73.8026 47.2967 73.962 46.5679 74.4118C46.5679 74.8274 46.5679 75.2374 46.5679 75.6474C49.9127 73.5691 53.2633 77.7257 56.6082 75.6474C56.6082 75.2318 56.6082 74.8274 56.6082 74.4118C54.4611 75.7441 52.3197 74.5257 50.1783 74.019Z" fill="white"/>
<path d="M71.79 54.3633H73.3269V75.402H71.79V54.3633ZM64.8234 74.1209L65.185 74.0582C65.541 74.0013 65.8574 73.8817 66.123 73.7109C66.3772 73.5515 66.6032 73.3635 66.801 73.1586C66.993 72.9536 67.1513 72.7486 67.2756 72.5323C67.3886 72.3387 67.4903 72.1736 67.575 72.0369C67.8237 71.5757 68.0157 71.0462 68.1514 70.4484C68.287 69.8675 68.3774 69.2356 68.4226 68.5751C68.4678 67.9203 68.4735 67.237 68.4338 66.5424C68.4 65.8477 68.3152 65.1531 68.1909 64.4926C67.9593 63.2457 67.5807 62.1923 67.0722 61.3724C66.5468 60.524 65.9308 59.9603 65.2359 59.7098L64.8234 59.5617V74.1209ZM63.3148 54.3918H64.8234V58.2578L65.0156 58.3376C65.4223 58.5084 65.8066 58.6963 66.1682 58.8899C66.5185 59.0834 66.8519 59.3055 67.1569 59.5617C67.462 59.8123 67.7559 60.1084 68.0328 60.4557C68.3096 60.803 68.5751 61.2073 68.8294 61.6684C69.0441 62.0499 69.2418 62.5624 69.417 63.1887C69.5978 63.8208 69.7334 64.5268 69.8295 65.284C69.9255 66.0414 69.965 66.8498 69.9594 67.6868C69.9538 68.5181 69.8634 69.3437 69.7051 70.1409C69.5413 70.9323 69.2983 71.6953 68.9763 72.4013C68.6599 73.096 68.2418 73.6995 67.7276 74.2006C67.3999 74.5194 66.9704 74.7585 66.4619 74.918C65.9196 75.0888 65.3828 75.2198 64.8743 75.3052C64.5918 75.3394 64.2866 75.3678 63.9703 75.3963C63.7555 75.4133 63.5408 75.4248 63.3205 75.4305V54.3918H63.3148Z" fill="white"/>
<path d="M11.4751 3.26748C11.7971 3.26748 12.1191 3.26179 12.3113 3.165C12.5599 3.02835 12.6842 2.59562 12.7972 2.1458C12.9498 1.5935 13.2774 1.20632 14.1533 1.37144V1.86111C13.7295 1.83264 13.5769 1.91235 13.447 2.35077C13.317 2.81767 13.1814 3.23332 12.8933 3.49524L14.2945 5.5507V5.6532H13.4922L12.2718 3.77424C12.091 3.84256 11.6784 3.84256 11.4751 3.84256V5.6532H10.7632V1.36575H11.4751V3.26748Z" fill="white"/>
<path d="M16.1929 5.66439H15.5093V5.5619L17.3737 1.34277H17.6789L19.5491 5.5619V5.66439H18.8597L17.532 2.52709H17.5263L16.1929 5.66439Z" fill="white"/>
<path d="M26.7418 3.62097V5.03303C27.0809 5.03303 27.4594 5.03872 27.8041 5.03303C28.3408 5.03303 28.6064 4.70849 28.6064 4.327C28.6064 3.93412 28.3408 3.62097 27.8041 3.62097H26.7418ZM26.7418 3.01742H27.7984C28.8098 3.01742 29.2957 3.5868 29.2957 4.31561C29.2957 5.05012 28.7985 5.65935 27.7984 5.65935H26.0413V1.36621H28.9454V1.99823H26.7418V3.01742Z" fill="white"/>
<path d="M33.7423 5.66505V3.74623H31.793V5.66505H31.0868V1.36621H31.793V3.09144H33.7423V1.36621H34.4543V5.66505H33.7423Z" fill="white"/>
<path d="M41.1552 5.66505H40.449V1.36621H41.1552V5.66505ZM38.0929 3.41029H37.2397V5.02734C37.5449 5.02734 37.8612 5.03303 38.172 5.03303C38.7144 5.03303 39.0647 4.77112 39.0986 4.27006C39.1269 3.78608 38.7935 3.4046 38.2907 3.4046H38.0929V3.41029ZM37.2397 1.58258V2.77258H38.285C39.2908 2.77258 39.8501 3.52987 39.771 4.35547C39.7089 5.07858 39.1551 5.66505 38.285 5.66505H36.5448V1.36621H37.2397V1.58258Z" fill="white"/>
<path d="M52.1108 5.04424H54.0882L53.0769 2.51048H53.0712L52.1108 5.04424ZM51.5344 6.31396H50.9581V5.05562H51.4045L52.9356 1.32617H53.2351L54.8171 5.05562H55.2804V6.31396H54.7098V5.66487H51.5401V6.31396H51.5344Z" fill="white"/>
<path d="M58.7155 5.06148C59.5122 5.06148 60.1789 4.51486 60.1789 3.51275C60.1789 2.53341 59.5235 1.95834 58.7212 1.95834C57.9188 1.95834 57.2578 2.51634 57.2578 3.51275C57.2635 4.51486 57.9133 5.06148 58.7155 5.06148ZM58.7043 5.73904C57.5347 5.73904 56.5403 4.91913 56.5403 3.51845C56.5403 2.11776 57.5573 1.29785 58.7155 1.29785C59.8795 1.29785 60.8852 2.11776 60.8852 3.51845C60.8852 4.82233 59.9925 5.73904 58.7043 5.73904Z" fill="white"/>
<path d="M66.4562 1.35449H66.716V5.66472H66.0041V2.97723L64.7724 4.56581H64.6763L63.439 2.97723V5.66472H62.7271V1.35449H62.9926L64.7272 3.57509L66.4562 1.35449Z" fill="white"/>
<path d="M43.4943 5.67041H43.2513V1.36588H43.9576V2.93169L43.9067 4.24696L46.4945 1.35449H46.7487V5.66472H46.0481V4.10461L46.099 2.74379L43.4943 5.67041Z" fill="white"/>
<path d="M46.1552 0.164367C45.4773 0.733749 44.7993 -0.405016 44.1212 0.164367C44.1212 0.278242 44.1212 0.602791 44.1212 0.710974C44.7993 0.141591 45.4773 1.28036 46.1552 0.710974C46.1552 0.597097 46.1552 0.278242 46.1552 0.164367Z" fill="white"/>
<path d="M22.2556 4.23589L20.7075 1.45731V1.36621H21.4873L22.6116 3.50709H22.6342L23.6512 1.36621H24.4083V1.44023L22.7302 4.82236C22.3968 5.56256 21.9618 5.9839 21.0295 5.6138L21.1256 5.05581C21.5663 5.2494 21.8319 5.11844 22.0296 4.69141L22.2556 4.23589Z" fill="white"/>
</g>
<defs>
<clipPath id="clip0_4052_2385">
<rect width="78" height="95" fill="white"/>
</clipPath>
</defs>
</svg>
