<svg width="204" height="88" viewBox="0 0 204 88" fill="none" xmlns="http://www.w3.org/2000/svg">
<g clip-path="url(#clip0_4052_2332)">
<path d="M124.132 82.9061C109.044 93.713 93.9778 72.0836 78.9108 82.9061C78.9039 85.0562 78.9039 82.7377 78.9108 84.8717C93.9847 74.0572 109.058 95.7027 124.132 84.8717C124.132 82.7136 124.125 85.0642 124.132 82.9061Z" fill="white"/>
<path d="M41.9146 59.4724C41.5994 59.4724 41.2498 59.4402 40.8865 59.3838C40.5232 59.3277 40.1603 59.2391 39.8039 59.1428C39.468 59.0461 39.2074 58.9418 39.0155 58.829C38.111 58.2983 37.3982 57.6388 36.8979 56.8587C36.3907 56.0626 35.9931 55.194 35.726 54.2693C35.4516 53.3365 35.2803 52.3393 35.2188 51.318C35.1501 50.2644 35.1227 49.235 35.1227 48.2458V41.0004C35.1227 39.7457 35.1364 38.4831 35.157 37.2125C35.1776 35.9902 35.3352 34.8321 35.6298 33.7787C35.9179 32.7413 36.3907 31.8004 37.0418 30.9801C37.686 30.1679 38.6591 29.5085 39.9477 29.0179L40.3794 28.8892C40.5919 28.8249 40.8319 28.7605 41.0853 28.7043C41.3391 28.6399 41.5925 28.5917 41.86 28.5595C41.9901 28.5434 42.1065 28.5354 42.2298 28.5273L42.3397 30.1518C41.2017 30.2965 40.2836 30.578 39.605 30.9801C38.8235 31.4465 38.2274 32.122 37.8436 32.9825C37.4665 33.8189 37.2406 34.8804 37.1582 36.143C37.083 37.3492 37.0418 38.8291 37.0418 40.5338V47.5142C37.0418 47.7474 37.0486 48.1173 37.0555 48.6238C37.0692 49.1387 37.0967 49.7176 37.1376 50.3611C37.1788 51.0202 37.2612 51.712 37.3707 52.4276C37.4803 53.1516 37.6447 53.8511 37.8504 54.5106C38.0561 55.1702 38.3164 55.7733 38.6182 56.2878C38.9471 56.8587 39.3788 57.2528 39.8928 57.4619C40.2767 57.6227 40.6606 57.7596 41.0373 57.8801C41.1815 57.9285 41.3459 57.9526 41.5173 57.9526C41.7295 57.9526 41.9558 57.9204 42.2092 57.8479L42.2298 59.4643C42.1546 59.4643 42.0516 59.4724 41.9146 59.4724Z" fill="white"/>
<path d="M53.5783 59.4724V30.2235H51V28.5273H58.217V30.2235H55.3892V59.4724H53.5783Z" fill="white"/>
<path d="M23.1762 28.5355V31.4003C21.5938 31.7087 20.165 33.8999 19.1903 36.5457V28.5273H17.3208V59.4724H19.1903V41.8615C19.5775 37.8685 21.4937 33.4861 23.1762 32.8855V59.4724H25.0189V28.5355H23.1762Z" fill="white"/>
<path d="M124.58 59.4724V30.2966H120.317L120.345 59.4724H118.359V28.5273H126.538V59.4724H124.58Z" fill="white"/>
<path d="M201.604 28.5273H203.519V59.4237H201.604V28.5273ZM192.897 57.5437L193.348 57.4548C193.793 57.3655 194.19 57.1954 194.525 56.9441C194.839 56.709 195.127 56.4338 195.366 56.1338C195.606 55.8342 195.804 55.526 195.961 55.2183C196.105 54.9346 196.228 54.6914 196.33 54.4888C196.645 53.8084 196.878 53.0306 197.049 52.1553C197.213 51.2963 197.329 50.3727 197.384 49.4086C197.439 48.4444 197.445 47.4397 197.397 46.4187C197.349 45.3977 197.254 44.3848 197.097 43.4044C196.802 41.5731 196.337 40.0252 195.701 38.8178C195.045 37.5702 194.272 36.7437 193.41 36.379L192.89 36.1603V57.5437H192.897ZM191.016 28.5679H192.904V34.2399L193.143 34.3533C193.649 34.6045 194.135 34.88 194.58 35.1717C195.017 35.4553 195.435 35.7875 195.817 36.1522C196.2 36.5168 196.563 36.9624 196.905 37.4648C197.247 37.9753 197.582 38.575 197.904 39.2473C198.17 39.8149 198.417 40.5602 198.642 41.4838C198.868 42.4159 199.039 43.4446 199.155 44.563C199.271 45.6729 199.326 46.864 199.313 48.0957C199.299 49.3193 199.196 50.5266 198.991 51.7015C198.793 52.8682 198.485 53.9866 198.081 55.0239C197.691 56.0449 197.165 56.9278 196.522 57.6655C196.112 58.127 195.578 58.4839 194.935 58.7267C194.258 58.9779 193.588 59.1724 192.952 59.2938C192.603 59.3425 192.22 59.3831 191.823 59.4237C191.556 59.448 191.283 59.4643 191.009 59.4724V28.5679H191.016Z" fill="white"/>
<path d="M95.2641 39.4269V38.0795H91.9476V30.1018H95.2288V28.5273H89.9717V59.4724H95.2641V58.1334H91.9476V39.4269H95.2641Z" fill="white"/>
<path d="M174.515 57.6293L176.427 33.5472L176.717 33.5309L178.247 57.9301C178.885 58.0932 179.522 58.2069 180.16 58.1906L177.44 28.5273H175.811L172.673 57.3281C171.731 57.3122 170.782 57.5396 169.84 58.2151C169.84 58.8253 169.84 59.4354 169.84 60.0375C174.168 56.9702 178.502 63.1048 182.83 60.0375C182.83 59.4273 182.83 58.8253 182.83 58.2151C180.054 60.1757 177.284 58.3777 174.515 57.6293Z" fill="white"/>
<path d="M78.4349 28.5273H80.349V59.4237H78.4349V28.5273ZM69.7332 57.5437L70.1842 57.4548C70.6287 57.3655 71.025 57.1954 71.36 56.9441C71.6744 56.709 71.9617 56.4338 72.2007 56.1338C72.4401 55.8342 72.6384 55.526 72.7956 55.2183C72.9391 54.9346 73.0621 54.6914 73.1648 54.4888C73.4792 53.8084 73.7114 53.0306 73.8823 52.1553C74.0464 51.2963 74.1628 50.3727 74.2173 49.4086C74.2721 48.4444 74.2789 47.4397 74.2378 46.4187C74.1902 45.3977 74.0943 44.3848 73.9371 43.4044C73.6433 41.5731 73.1782 40.0252 72.5425 38.8178C71.8863 37.5702 71.114 36.7437 70.2527 36.379L69.7332 36.1603V57.5437ZM67.8464 28.5679H69.7332V34.2399L69.9722 34.3533C70.4781 34.6045 70.9637 34.88 71.4079 35.1717C71.8453 35.4553 72.2624 35.7875 72.6453 36.1522C73.0278 36.5168 73.3902 36.9624 73.732 37.4648C74.0738 37.9753 74.4087 38.575 74.73 39.2473C74.9967 39.8149 75.2495 40.5602 75.4683 41.4838C75.694 42.4159 75.8649 43.4446 75.981 44.563C76.0971 45.6729 76.1519 46.864 76.1382 48.0957C76.1245 49.3193 76.0221 50.5266 75.817 51.7015C75.6187 52.8682 75.3111 53.9866 74.9077 55.0239C74.5183 56.0449 73.9919 56.9278 73.3491 57.6655C72.9391 58.127 72.4059 58.4839 71.7634 58.7267C71.0867 58.9779 70.4168 59.1724 69.7811 59.2938C69.4325 59.3425 69.0496 59.3831 68.653 59.4237C68.3865 59.448 68.1129 59.4643 67.8396 59.4724V28.5679H67.8464Z" fill="white"/>
<path d="M5.33319 59.4724V51.8193L4.90625 51.8762C4.61485 51.9165 4.31669 51.9328 4.01174 51.9328C3.76101 51.9328 3.50353 51.9165 3.24601 51.8925C2.69033 51.8356 2.16176 51.6896 1.68741 51.4704C1.22661 51.2594 0.813237 50.9508 0.460858 50.5694C0.12203 50.1962 -0.10837 49.7416 -0.243901 49.1654C-0.399761 48.5649 -0.481079 47.9074 -0.481079 47.2259V44.5964L-0.447197 28.5273H1.457L1.41635 44.9046L1.45023 47.4044C1.45023 47.9806 1.55865 48.4677 1.7755 48.8572C1.98558 49.2305 2.26341 49.5306 2.60224 49.7335C2.92751 49.9282 3.30699 50.0502 3.72713 50.0908C3.90334 50.1067 4.07951 50.1148 4.25572 50.1148C4.4929 50.1148 4.73684 50.0986 4.98081 50.0664L5.31961 50.0258V28.5273H7.21703V59.4724H5.33319Z" fill="white"/>
<path d="M138.393 52.0791C138.393 52.0791 139.701 51.568 140.468 50.4071C140.938 49.7013 141.319 48.7921 141.636 47.7292C141.947 46.6822 142.188 45.4974 142.353 44.1987C142.518 42.9085 142.607 41.6017 142.62 40.3196C142.632 39.0209 142.55 37.7712 142.385 36.5944C142.22 35.3932 141.947 34.3625 141.585 33.5185C141.478 33.2913 141.357 33.0478 141.23 32.7638C141.084 32.4473 140.9 32.1389 140.678 31.8467C140.456 31.5464 140.196 31.2786 139.897 31.0351C139.586 30.7835 139.218 30.6131 138.806 30.5238L138.387 30.4346V52.0791H138.393ZM136.641 59.4643V28.5273C137.263 28.5436 137.873 28.6085 138.457 28.714C139.034 28.8358 144.34 30.0044 144.34 39.922C144.34 41.1552 144.302 42.3405 144.194 43.4603C144.086 44.5719 143.927 45.6108 143.718 46.5444C143.515 47.4613 143.286 48.2159 143.032 48.7762C142.741 49.4577 142.429 50.0501 142.106 50.5616C141.789 51.0646 141.446 51.511 141.097 51.8762C140.735 52.2495 140.348 52.5825 139.948 52.8581C139.536 53.1505 139.085 53.4262 138.615 53.6779L138.393 53.7917V59.4724H136.641V59.4643Z" fill="white"/>
<path d="M154.994 59.4724C154.847 59.4724 154.7 59.4643 154.554 59.4481C154.2 59.4075 153.867 59.3431 153.56 59.2458C153.4 59.1971 153.26 59.1407 153.134 59.0921L153.6 57.603C153.7 57.6516 153.787 57.6921 153.847 57.7246C153.98 57.7972 154.16 57.8296 154.374 57.8296C154.447 57.8296 154.534 57.8296 154.621 57.8134C155 57.7809 155.32 57.5786 155.581 57.2064C155.794 56.8991 155.974 56.559 156.107 56.1787C156.234 55.8146 156.334 55.4424 156.401 55.0702C156.461 54.7304 156.514 54.4552 156.561 54.2447L156.581 54.1556L153 28.5273H154.82L157.294 48.2808L157.481 48.2646L160.475 28.5273H162.142L158.228 55.2239C158.088 56.1868 157.874 57.0122 157.594 57.6759C157.327 58.3072 156.921 58.7925 156.347 59.1647C156.14 59.2863 155.874 59.3751 155.567 59.4238C155.374 59.4643 155.18 59.4724 154.994 59.4724Z" fill="white"/>
<path d="M60.0574 4.74467C60.4527 4.74467 60.8483 4.73665 61.0763 4.59254C61.3846 4.40035 61.532 3.76779 61.6727 3.1112C61.8605 2.31048 62.2625 1.74997 63.3351 1.99019V2.70283C62.8122 2.65479 62.6245 2.7749 62.4703 3.41547C62.3162 4.0961 62.1419 4.69661 61.7933 5.08097L63.5094 8.06763V8.2198H62.5241L61.0293 5.49734C60.808 5.59342 60.3052 5.59342 60.0507 5.59342V8.2198H59.1792V1.98218H60.0507V4.74467H60.0574Z" fill="white"/>
<path d="M67.2867 8.2198H66.3962V8.07547L68.8377 1.93408H69.24L71.6887 8.07547V8.2198H70.7838L69.0461 3.65784H69.0389L67.2867 8.2198Z" fill="white"/>
<path d="M76.3883 6.0432L74.5754 2.05284V1.93408H75.4849L76.8046 5.00602H76.8302L78.0218 1.93408H78.9056V2.03701L76.939 6.89036C76.5485 7.95923 76.0424 8.553 74.9535 8.02254L75.0687 7.22289C75.5812 7.50794 75.8951 7.31 76.1255 6.70036L76.3883 6.0432Z" fill="white"/>
<path d="M93.3864 8.2198V5.41181H90.8797V8.2198H89.9717V1.93408H90.8797V4.45161H93.3864V1.93408H94.3019V8.2198H93.3864Z" fill="white"/>
<path d="M104.406 8.2198H103.447V1.93408H104.406V8.2198ZM100.253 4.91959H99.0943V7.29189C99.5103 7.29189 99.9338 7.29993 100.357 7.29993C101.093 7.29993 101.575 6.91265 101.613 6.18643C101.657 5.47638 101.197 4.91959 100.513 4.91959H100.253ZM99.0943 2.24877V3.99168H100.513C101.88 3.99168 102.638 5.09714 102.526 6.30746C102.444 7.36449 101.694 8.2198 100.513 8.2198H98.1509V1.93408H99.0943V2.24877Z" fill="white"/>
<path d="M109.034 8.2198H108.736V1.95016H109.61V4.23294L109.549 6.14599L112.748 1.93408H113.066V8.21178H112.199V5.93702L112.26 3.9516L109.034 8.2198Z" fill="white"/>
<path d="M122.316 7.34156H124.957L123.604 3.65902H123.596L122.316 7.34156ZM121.54 9.18683H120.764V7.35759H121.357L123.399 1.93408H123.801L125.916 7.35759H126.538V9.18683H125.77V8.24013H121.533V9.18683H121.54Z" fill="white"/>
<path d="M132.074 7.26835C133.048 7.26835 133.856 6.49629 133.856 5.08473C133.856 3.69658 133.055 2.89331 132.081 2.89331C131.1 2.89331 130.299 3.68098 130.299 5.08473C130.299 6.49629 131.093 7.26835 132.074 7.26835ZM132.061 8.2198C130.632 8.2198 129.425 7.05779 129.425 5.07695C129.425 3.09608 130.666 1.93408 132.074 1.93408C133.496 1.93408 134.717 3.09608 134.717 5.07695C134.717 6.92522 133.629 8.2198 132.061 8.2198Z" fill="white"/>
<path d="M143.06 1.93408H143.377V8.2198H142.518V4.29224L141.031 6.61012H140.919L139.425 4.29224V8.2198H138.566V1.93408H138.883L140.978 5.1695L143.06 1.93408Z" fill="white"/>
<path d="M112.104 0.274599C111.302 1.21338 110.5 -0.673293 109.698 0.274599C109.698 0.466 109.698 0.994632 109.698 1.17692C110.5 0.229028 111.302 2.12481 112.104 1.17692C112.104 0.994632 112.104 0.466 112.104 0.274599Z" fill="white"/>
<path d="M83.1979 5.22622V7.29189C83.6489 7.29189 84.151 7.29993 84.6097 7.29189C85.3228 7.29189 85.6794 6.81582 85.6794 6.25907C85.6794 5.68615 85.3228 5.22622 84.6097 5.22622H83.1979ZM83.1979 4.3467H84.6097C85.9558 4.3467 86.6037 5.17783 86.6037 6.25099C86.6037 7.33223 85.9416 8.2198 84.6097 8.2198H82.2736V1.93408H86.1308V2.86201H83.1979V4.3467Z" fill="white"/>
</g>
<defs>
<clipPath id="clip0_4052_2332">
<rect width="204" height="88" fill="white"/>
</clipPath>
</defs>
</svg>
