<svg width="88" height="20" viewBox="0 0 88 20" fill="none" xmlns="http://www.w3.org/2000/svg">
<path d="M74.2217 19.7287L79.7028 13.2595L74.4228 5.82743H77.2891C78.6971 5.82743 78.496 6.39533 80.9348 9.82743L81.7645 11.0126L85.0834 6.00027C85.184 5.85212 85.36 5.80273 85.5108 5.80273H87.2205L82.2423 11.6793L88 19.7287H85.3097C83.5245 19.7534 83.8514 19.0373 81.488 15.7534L80.1805 13.9262L76.384 19.5064C76.2834 19.6546 76.1325 19.704 75.9314 19.704H74.2217V19.7287Z" fill="white" fill-opacity="0.2"/>
<path d="M68.464 20C66.528 20 64.5166 19.4568 63.2595 17.9259C62.0777 16.4938 61.6503 14.716 61.6 12.9135C61.5749 10.6666 62.1532 8.86416 63.36 7.50614C64.5669 6.14812 66.2263 5.48145 68.3383 5.48145C69.344 5.48145 70.2492 5.62959 71.0286 5.92589C71.808 6.22218 72.4115 6.61725 72.8892 7.13577C73.3669 7.65429 73.7189 8.24688 73.9452 8.91354C74.1715 9.58021 74.2972 10.3209 74.3223 11.1111C74.3223 11.5308 74.2972 11.9259 74.2217 12.2716C74.2217 12.321 74.1715 12.3456 74.1463 12.3456H65.296C65.3463 14.5926 65.6983 16.1975 66.352 17.2098C67.0057 18.2222 68.0869 18.716 69.6206 18.716C71.2046 18.716 72.4366 18.2716 73.6435 17.358C73.8446 17.5308 74.0709 18 73.6435 18.3703C72.5372 19.358 70.3749 20 68.464 20ZM65.2709 11.679L71.0035 11.2592C71.0286 9.38268 70.9532 6.29626 68.4137 6.29626C65.7486 6.29626 65.3463 9.67898 65.2709 11.679Z" fill="white" fill-opacity="0.2"/>
<path d="M59.3875 18.1231V9.975C59.3875 7.18487 58.3063 5.50586 55.5155 5.50586C53.5543 5.50586 51.6938 6.41944 50.3612 7.77746C50.3612 6.69104 50.1852 5.80215 49.104 5.80215H46.8412L46.9669 7.3824V18.0985L46.8412 19.7034H50.512L50.3863 18.0985V8.5182C51.4423 7.72808 52.4229 7.33302 53.8309 7.33302C55.616 7.33302 55.968 8.96265 55.968 10.7651V17.8268C55.968 19.012 56.2446 19.7034 57.2503 19.7034H59.5132L59.3875 18.1231Z" fill="white" fill-opacity="0.2"/>
<path d="M43.296 1.77778C43.296 2.76544 42.4663 3.55556 41.4606 3.55556C40.4548 3.55556 39.6251 2.76544 39.6251 1.77778C39.6251 0.790127 40.4548 0 41.4606 0C42.4663 0 43.296 0.790127 43.296 1.77778Z" fill="white" fill-opacity="0.2"/>
<path d="M39.7509 5.80203L39.8766 7.38228V18.0983L39.7509 19.7033H43.4217L43.296 18.0983V7.65388C43.296 6.59215 43.0949 5.77734 42.0137 5.77734H39.7509V5.80203Z" fill="white" fill-opacity="0.2"/>
<path d="M36.2811 18.1231V9.975C36.2811 7.16018 35.2 5.50586 32.4091 5.50586C30.0708 5.50586 28.4868 6.66635 27.2297 7.975C26.7771 6.41944 25.6708 5.50586 23.5588 5.50586C21.5726 5.50586 19.9634 6.41944 18.656 7.80215V7.77746C18.656 6.69104 18.48 5.80215 17.3988 5.80215H15.136L15.2617 7.3824V18.0985L15.136 19.7034H18.8068L18.6811 18.0985V8.5182C19.712 7.67869 20.944 7.33302 21.9246 7.33302C23.8606 7.33302 24.0617 9.28363 24.0617 10.7651V18.0985L23.936 19.7034H27.6068L27.4811 18.0985V8.5182C28.3611 7.77746 29.5931 7.33302 30.7497 7.33302C32.7611 7.33302 32.8868 9.48117 32.8868 10.7651V17.8268C32.8868 19.1602 33.264 19.7034 34.1691 19.7034H36.432L36.2811 18.1231Z" fill="white" fill-opacity="0.2"/>
<path d="M5.85833 20C4.17376 20 1.68462 19.5309 0.176049 18.6914C0.452621 18.0741 0.98062 17.6049 1.73491 18C3.09262 18.6914 4.45033 19.0123 5.9589 19.0123C8.12119 19.0123 9.70519 17.8272 9.60462 15.679C9.37833 11.1852 -0.0250925 10.5185 5.03299e-05 5.11111C0.0251932 1.13581 3.67091 0 7.16576 0C8.85033 0 10.5098 0.320994 12.144 0.962969C11.8675 1.60494 11.3898 2.14815 10.56 1.75309C9.40347 1.20988 8.2469 0.962969 7.0149 0.962969C4.87776 0.962969 3.6709 2.09877 3.6709 3.77778C3.64576 8.07408 13.2 8.71605 13.376 14.2963C13.4766 18.3704 10.0069 20 5.85833 20Z" fill="white" fill-opacity="0.2"/>
</svg>
