<svg xmlns="http://www.w3.org/2000/svg">
	<symbol id="icon-home" viewBox="0 0 28 28" fill="none">
		<path d="M3.77974 9.28072C3.65227 9.39153 3.57898 9.55275 3.57898 9.72238V26.8335C3.57898 27.1556 3.83818 27.4168 4.15793 27.4168H23.8421C24.1618 27.4168 24.4211 27.1556 24.4211 26.8335V9.72238C24.4211 9.55275 24.3478 9.39153 24.2203 9.28072L14.3782 0.725155C14.1609 0.536276 13.8391 0.536276 13.6218 0.725155L3.77974 9.28072Z" stroke="#FFFFFF" stroke-linejoin="round"/>
	</symbol>

	<symbol id="icon-favorite" viewBox="0 0 28 28" fill="none">
		<path d="M23.6826 1H5V27L14.3413 22.9521L23.6826 27V1Z" stroke="#FFFFFF"/>
	</symbol>

	<symbol id="icon-curve" viewBox="0 0 60 10" fill="none">
		<path d="M60 3.80668C39.984 16.9666 19.9954 -9.37287 0.00685479 3.80668C-0.00228493 6.425 -0.00228493 3.59174 0.00685479 6.19052C20.0046 -6.97925 40.0023 19.3798 60 6.19052C60 3.5722 59.9909 6.43477 60 3.80668Z" fill="#FFFFFF"/>
	</symbol>

	<symbol id="logo" viewBox="0 0 204 88" fill="none">
		<path d="M124.132 82.9061C109.044 93.713 93.9778 72.0836 78.9108 82.9061C78.9039 85.0562 78.9039 82.7377 78.9108 84.8717C93.9847 74.0572 109.058 95.7027 124.132 84.8717C124.132 82.7136 124.125 85.0642 124.132 82.9061Z" fill="#FFFFFF"/>
		<path d="M41.9146 59.4724C41.5994 59.4724 41.2498 59.4402 40.8865 59.3838C40.5232 59.3277 40.1603 59.2391 39.8039 59.1428C39.468 59.0461 39.2074 58.9418 39.0155 58.829C38.111 58.2983 37.3982 57.6388 36.8979 56.8587C36.3907 56.0626 35.9931 55.194 35.726 54.2693C35.4516 53.3365 35.2803 52.3393 35.2188 51.318C35.1501 50.2644 35.1227 49.235 35.1227 48.2458V41.0004C35.1227 39.7457 35.1364 38.4831 35.157 37.2125C35.1776 35.9902 35.3352 34.8321 35.6298 33.7787C35.9179 32.7413 36.3907 31.8004 37.0418 30.9801C37.686 30.1679 38.6591 29.5085 39.9477 29.0179L40.3794 28.8892C40.5919 28.8249 40.8319 28.7605 41.0853 28.7043C41.3391 28.6399 41.5925 28.5917 41.86 28.5595C41.9901 28.5434 42.1065 28.5354 42.2298 28.5273L42.3397 30.1518C41.2017 30.2965 40.2836 30.578 39.605 30.9801C38.8235 31.4465 38.2274 32.122 37.8436 32.9825C37.4665 33.8189 37.2406 34.8804 37.1582 36.143C37.083 37.3492 37.0418 38.8291 37.0418 40.5338V47.5142C37.0418 47.7474 37.0486 48.1173 37.0555 48.6238C37.0692 49.1387 37.0967 49.7176 37.1376 50.3611C37.1788 51.0202 37.2612 51.712 37.3707 52.4276C37.4803 53.1516 37.6447 53.8511 37.8504 54.5106C38.0561 55.1702 38.3164 55.7733 38.6182 56.2878C38.9471 56.8587 39.3788 57.2528 39.8928 57.4619C40.2767 57.6227 40.6606 57.7596 41.0373 57.8801C41.1815 57.9285 41.3459 57.9526 41.5173 57.9526C41.7295 57.9526 41.9558 57.9204 42.2092 57.8479L42.2298 59.4643C42.1546 59.4643 42.0516 59.4724 41.9146 59.4724Z" fill="#FFFFFF"/>
		<path d="M53.5783 59.4724V30.2235H51V28.5273H58.217V30.2235H55.3892V59.4724H53.5783Z" fill="#FFFFFF"/>
		<path d="M23.1762 28.5355V31.4003C21.5938 31.7087 20.165 33.8999 19.1903 36.5457V28.5273H17.3208V59.4724H19.1903V41.8615C19.5775 37.8685 21.4937 33.4861 23.1762 32.8855V59.4724H25.0189V28.5355H23.1762Z" fill="#FFFFFF"/>
		<path d="M124.58 59.4724V30.2966H120.317L120.345 59.4724H118.359V28.5273H126.538V59.4724H124.58Z" fill="#FFFFFF"/>
		<path d="M201.604 28.5273H203.519V59.4237H201.604V28.5273ZM192.897 57.5437L193.348 57.4548C193.793 57.3655 194.19 57.1954 194.525 56.9441C194.839 56.709 195.127 56.4338 195.366 56.1338C195.606 55.8342 195.804 55.526 195.961 55.2183C196.105 54.9346 196.228 54.6914 196.33 54.4888C196.645 53.8084 196.878 53.0306 197.049 52.1553C197.213 51.2963 197.329 50.3727 197.384 49.4086C197.439 48.4444 197.445 47.4397 197.397 46.4187C197.349 45.3977 197.254 44.3848 197.097 43.4044C196.802 41.5731 196.337 40.0252 195.701 38.8178C195.045 37.5702 194.272 36.7437 193.41 36.379L192.89 36.1603V57.5437H192.897ZM191.016 28.5679H192.904V34.2399L193.143 34.3533C193.649 34.6045 194.135 34.88 194.58 35.1717C195.017 35.4553 195.435 35.7875 195.817 36.1522C196.2 36.5168 196.563 36.9624 196.905 37.4648C197.247 37.9753 197.582 38.575 197.904 39.2473C198.17 39.8149 198.417 40.5602 198.642 41.4838C198.868 42.4159 199.039 43.4446 199.155 44.563C199.271 45.6729 199.326 46.864 199.313 48.0957C199.299 49.3193 199.196 50.5266 198.991 51.7015C198.793 52.8682 198.485 53.9866 198.081 55.0239C197.691 56.0449 197.165 56.9278 196.522 57.6655C196.112 58.127 195.578 58.4839 194.935 58.7267C194.258 58.9779 193.588 59.1724 192.952 59.2938C192.603 59.3425 192.22 59.3831 191.823 59.4237C191.556 59.448 191.283 59.4643 191.009 59.4724V28.5679H191.016Z" fill="#FFFFFF"/>
		<path d="M95.2641 39.4269V38.0795H91.9476V30.1018H95.2288V28.5273H89.9717V59.4724H95.2641V58.1334H91.9476V39.4269H95.2641Z" fill="#FFFFFF"/>
		<path d="M174.515 57.6293L176.427 33.5472L176.717 33.5309L178.247 57.9301C178.885 58.0932 179.522 58.2069 180.16 58.1906L177.44 28.5273H175.811L172.673 57.3281C171.731 57.3122 170.782 57.5396 169.84 58.2151C169.84 58.8253 169.84 59.4354 169.84 60.0375C174.168 56.9702 178.502 63.1048 182.83 60.0375C182.83 59.4273 182.83 58.8253 182.83 58.2151C180.054 60.1757 177.284 58.3777 174.515 57.6293Z" fill="#FFFFFF"/>
		<path d="M78.4349 28.5273H80.349V59.4237H78.4349V28.5273ZM69.7332 57.5437L70.1842 57.4548C70.6287 57.3655 71.025 57.1954 71.36 56.9441C71.6744 56.709 71.9617 56.4338 72.2007 56.1338C72.4401 55.8342 72.6384 55.526 72.7956 55.2183C72.9391 54.9346 73.0621 54.6914 73.1648 54.4888C73.4792 53.8084 73.7114 53.0306 73.8823 52.1553C74.0464 51.2963 74.1628 50.3727 74.2173 49.4086C74.2721 48.4444 74.2789 47.4397 74.2378 46.4187C74.1902 45.3977 74.0943 44.3848 73.9371 43.4044C73.6433 41.5731 73.1782 40.0252 72.5425 38.8178C71.8863 37.5702 71.114 36.7437 70.2527 36.379L69.7332 36.1603V57.5437ZM67.8464 28.5679H69.7332V34.2399L69.9722 34.3533C70.4781 34.6045 70.9637 34.88 71.4079 35.1717C71.8453 35.4553 72.2624 35.7875 72.6453 36.1522C73.0278 36.5168 73.3902 36.9624 73.732 37.4648C74.0738 37.9753 74.4087 38.575 74.73 39.2473C74.9967 39.8149 75.2495 40.5602 75.4683 41.4838C75.694 42.4159 75.8649 43.4446 75.981 44.563C76.0971 45.6729 76.1519 46.864 76.1382 48.0957C76.1245 49.3193 76.0221 50.5266 75.817 51.7015C75.6187 52.8682 75.3111 53.9866 74.9077 55.0239C74.5183 56.0449 73.9919 56.9278 73.3491 57.6655C72.9391 58.127 72.4059 58.4839 71.7634 58.7267C71.0867 58.9779 70.4168 59.1724 69.7811 59.2938C69.4325 59.3425 69.0496 59.3831 68.653 59.4237C68.3865 59.448 68.1129 59.4643 67.8396 59.4724V28.5679H67.8464Z" fill="#FFFFFF"/>
		<path d="M5.33319 59.4724V51.8193L4.90625 51.8762C4.61485 51.9165 4.31669 51.9328 4.01174 51.9328C3.76101 51.9328 3.50353 51.9165 3.24601 51.8925C2.69033 51.8356 2.16176 51.6896 1.68741 51.4704C1.22661 51.2594 0.813237 50.9508 0.460858 50.5694C0.12203 50.1962 -0.10837 49.7416 -0.243901 49.1654C-0.399761 48.5649 -0.481079 47.9074 -0.481079 47.2259V44.5964L-0.447197 28.5273H1.457L1.41635 44.9046L1.45023 47.4044C1.45023 47.9806 1.55865 48.4677 1.7755 48.8572C1.98558 49.2305 2.26341 49.5306 2.60224 49.7335C2.92751 49.9282 3.30699 50.0502 3.72713 50.0908C3.90334 50.1067 4.07951 50.1148 4.25572 50.1148C4.4929 50.1148 4.73684 50.0986 4.98081 50.0664L5.31961 50.0258V28.5273H7.21703V59.4724H5.33319Z" fill="#FFFFFF"/>
		<path d="M138.393 52.0791C138.393 52.0791 139.701 51.568 140.468 50.4071C140.938 49.7013 141.319 48.7921 141.636 47.7292C141.947 46.6822 142.188 45.4974 142.353 44.1987C142.518 42.9085 142.607 41.6017 142.62 40.3196C142.632 39.0209 142.55 37.7712 142.385 36.5944C142.22 35.3932 141.947 34.3625 141.585 33.5185C141.478 33.2913 141.357 33.0478 141.23 32.7638C141.084 32.4473 140.9 32.1389 140.678 31.8467C140.456 31.5464 140.196 31.2786 139.897 31.0351C139.586 30.7835 139.218 30.6131 138.806 30.5238L138.387 30.4346V52.0791H138.393ZM136.641 59.4643V28.5273C137.263 28.5436 137.873 28.6085 138.457 28.714C139.034 28.8358 144.34 30.0044 144.34 39.922C144.34 41.1552 144.302 42.3405 144.194 43.4603C144.086 44.5719 143.927 45.6108 143.718 46.5444C143.515 47.4613 143.286 48.2159 143.032 48.7762C142.741 49.4577 142.429 50.0501 142.106 50.5616C141.789 51.0646 141.446 51.511 141.097 51.8762C140.735 52.2495 140.348 52.5825 139.948 52.8581C139.536 53.1505 139.085 53.4262 138.615 53.6779L138.393 53.7917V59.4724H136.641V59.4643Z" fill="#FFFFFF"/>
		<path d="M154.994 59.4724C154.847 59.4724 154.7 59.4643 154.554 59.4481C154.2 59.4075 153.867 59.3431 153.56 59.2458C153.4 59.1971 153.26 59.1407 153.134 59.0921L153.6 57.603C153.7 57.6516 153.787 57.6921 153.847 57.7246C153.98 57.7972 154.16 57.8296 154.374 57.8296C154.447 57.8296 154.534 57.8296 154.621 57.8134C155 57.7809 155.32 57.5786 155.581 57.2064C155.794 56.8991 155.974 56.559 156.107 56.1787C156.234 55.8146 156.334 55.4424 156.401 55.0702C156.461 54.7304 156.514 54.4552 156.561 54.2447L156.581 54.1556L153 28.5273H154.82L157.294 48.2808L157.481 48.2646L160.475 28.5273H162.142L158.228 55.2239C158.088 56.1868 157.874 57.0122 157.594 57.6759C157.327 58.3072 156.921 58.7925 156.347 59.1647C156.14 59.2863 155.874 59.3751 155.567 59.4238C155.374 59.4643 155.18 59.4724 154.994 59.4724Z" fill="#FFFFFF"/>
		<path d="M60.0574 4.74467C60.4527 4.74467 60.8483 4.73665 61.0763 4.59254C61.3846 4.40035 61.532 3.76779 61.6727 3.1112C61.8605 2.31048 62.2625 1.74997 63.3351 1.99019V2.70283C62.8122 2.65479 62.6245 2.7749 62.4703 3.41547C62.3162 4.0961 62.1419 4.69661 61.7933 5.08097L63.5094 8.06763V8.2198H62.5241L61.0293 5.49734C60.808 5.59342 60.3052 5.59342 60.0507 5.59342V8.2198H59.1792V1.98218H60.0507V4.74467H60.0574Z" fill="#FFFFFF"/>
		<path d="M67.2867 8.2198H66.3962V8.07547L68.8377 1.93408H69.24L71.6887 8.07547V8.2198H70.7838L69.0461 3.65784H69.0389L67.2867 8.2198Z" fill="#FFFFFF"/>
		<path d="M76.3883 6.0432L74.5754 2.05284V1.93408H75.4849L76.8046 5.00602H76.8302L78.0218 1.93408H78.9056V2.03701L76.939 6.89036C76.5485 7.95923 76.0424 8.553 74.9535 8.02254L75.0687 7.22289C75.5812 7.50794 75.8951 7.31 76.1255 6.70036L76.3883 6.0432Z" fill="#FFFFFF"/>
		<path d="M93.3864 8.2198V5.41181H90.8797V8.2198H89.9717V1.93408H90.8797V4.45161H93.3864V1.93408H94.3019V8.2198H93.3864Z" fill="#FFFFFF"/>
		<path d="M104.406 8.2198H103.447V1.93408H104.406V8.2198ZM100.253 4.91959H99.0943V7.29189C99.5103 7.29189 99.9338 7.29993 100.357 7.29993C101.093 7.29993 101.575 6.91265 101.613 6.18643C101.657 5.47638 101.197 4.91959 100.513 4.91959H100.253ZM99.0943 2.24877V3.99168H100.513C101.88 3.99168 102.638 5.09714 102.526 6.30746C102.444 7.36449 101.694 8.2198 100.513 8.2198H98.1509V1.93408H99.0943V2.24877Z" fill="#FFFFFF"/>
		<path d="M109.034 8.2198H108.736V1.95016H109.61V4.23294L109.549 6.14599L112.748 1.93408H113.066V8.21178H112.199V5.93702L112.26 3.9516L109.034 8.2198Z" fill="#FFFFFF"/>
		<path d="M122.316 7.34156H124.957L123.604 3.65902H123.596L122.316 7.34156ZM121.54 9.18683H120.764V7.35759H121.357L123.399 1.93408H123.801L125.916 7.35759H126.538V9.18683H125.77V8.24013H121.533V9.18683H121.54Z" fill="#FFFFFF"/>
		<path d="M132.074 7.26835C133.048 7.26835 133.856 6.49629 133.856 5.08473C133.856 3.69658 133.055 2.89331 132.081 2.89331C131.1 2.89331 130.299 3.68098 130.299 5.08473C130.299 6.49629 131.093 7.26835 132.074 7.26835ZM132.061 8.2198C130.632 8.2198 129.425 7.05779 129.425 5.07695C129.425 3.09608 130.666 1.93408 132.074 1.93408C133.496 1.93408 134.717 3.09608 134.717 5.07695C134.717 6.92522 133.629 8.2198 132.061 8.2198Z" fill="#FFFFFF"/>
		<path d="M143.06 1.93408H143.377V8.2198H142.518V4.29224L141.031 6.61012H140.919L139.425 4.29224V8.2198H138.566V1.93408H138.883L140.978 5.1695L143.06 1.93408Z" fill="#FFFFFF"/>
		<path d="M112.104 0.274599C111.302 1.21338 110.5 -0.673293 109.698 0.274599C109.698 0.466 109.698 0.994632 109.698 1.17692C110.5 0.229028 111.302 2.12481 112.104 1.17692C112.104 0.994632 112.104 0.466 112.104 0.274599Z" fill="#FFFFFF"/>
		<path d="M83.1979 5.22622V7.29189C83.6489 7.29189 84.151 7.29993 84.6097 7.29189C85.3228 7.29189 85.6794 6.81582 85.6794 6.25907C85.6794 5.68615 85.3228 5.22622 84.6097 5.22622H83.1979ZM83.1979 4.3467H84.6097C85.9558 4.3467 86.6037 5.17783 86.6037 6.25099C86.6037 7.33223 85.9416 8.2198 84.6097 8.2198H82.2736V1.93408H86.1308V2.86201H83.1979V4.3467Z" fill="#FFFFFF"/>
	</symbol>

	<symbol id="icon-arrow" viewBox="0 0 60 42" fill="none">
		<circle cx="39" cy="21" r="19.5" stroke="currentColor"/>
		<path d="M39 16L44 21L39 26" stroke="currentColor"/>
		<path d="M44 21L2 21" stroke="currentColor"/>
	</symbol>

	<symbol id="logo-small" viewBox="0 0 78 95" fill="none">
		<path d="M57.117 91.379C45.1274 98.8094 33.1548 83.9371 21.1766 91.379C21.1709 92.859 21.1709 91.2591 21.1766 92.7285C33.1548 85.2922 45.1387 100.176 57.117 92.7285C57.1227 91.2476 57.117 92.8706 57.117 91.379Z" fill="#FFFFFF"/>
		<path d="M5.37862 40.5336V35.3352L5.03396 35.375C4.79666 35.4034 4.5537 35.4149 4.31075 35.4149C4.10734 35.4149 3.89829 35.4034 3.68924 35.3864C3.23723 35.3465 2.81347 35.2498 2.43492 35.1017C2.06201 34.9593 1.72865 34.7487 1.44615 34.4867C1.1693 34.2306 0.988486 33.923 0.881138 33.5359C0.745536 33.1146 0.677734 32.6705 0.677734 32.2035V30.4157L0.705985 19.4893H2.24282L2.21456 30.6264L2.24282 32.3231C2.24282 32.716 2.33322 33.0462 2.50271 33.3081C2.67222 33.5643 2.89823 33.7637 3.17507 33.9003C3.43498 34.0313 3.74009 34.1167 4.08474 34.1452C4.226 34.1565 4.36725 34.1622 4.51415 34.1622C4.70626 34.1622 4.90401 34.1509 5.10176 34.128L5.37862 34.0996V19.4949H6.91544V40.5336H5.37862Z" fill="#FFFFFF"/>
		<path d="M34.3465 40.6412C34.0923 40.6412 33.8154 40.6185 33.5217 40.5786C33.2278 40.5388 32.9397 40.4819 32.6572 40.4135C32.3916 40.3509 32.1826 40.2769 32.03 40.1971C31.3067 39.8328 30.7361 39.3772 30.3406 38.8477C29.9338 38.3011 29.6174 37.7033 29.4027 37.0713C29.1823 36.4279 29.0467 35.7502 28.9959 35.0442C28.945 34.3212 28.9167 33.6151 28.9167 32.9375V27.9668C28.9167 27.107 28.9281 26.2359 28.945 25.3647C28.962 24.5277 29.0863 23.7363 29.3236 23.0075C29.5552 22.2958 29.9338 21.6523 30.4479 21.0887C30.9621 20.5307 31.7419 20.0808 32.7701 19.745L33.1205 19.6596C33.29 19.614 33.4821 19.5741 33.6855 19.5286C33.8889 19.4887 34.0923 19.4545 34.3013 19.426C34.4031 19.4147 34.4992 19.409 34.5951 19.4033L34.6799 20.5136C33.7702 20.6161 33.0358 20.8097 32.4933 21.083C31.8661 21.4019 31.3971 21.863 31.0864 22.4609C30.787 23.036 30.6062 23.7648 30.5383 24.6303C30.4762 25.4559 30.4479 26.4694 30.4479 27.6423V32.4308C30.4479 32.5902 30.4536 32.8464 30.4593 33.1938C30.4705 33.5468 30.4875 33.9453 30.5271 34.3894C30.561 34.8393 30.6231 35.3175 30.7135 35.8072C30.8039 36.3083 30.9338 36.7865 31.0921 37.2363C31.256 37.6919 31.465 38.1018 31.7023 38.4548C31.9679 38.842 32.3068 39.1153 32.7193 39.2577C33.0244 39.3658 33.3295 39.4626 33.6347 39.5423C33.7533 39.5765 33.8776 39.5879 34.0132 39.5879C34.1827 39.5879 34.3635 39.5652 34.5613 39.5139L34.5782 40.6242C34.533 40.6356 34.454 40.6412 34.3465 40.6412Z" fill="#FFFFFF"/>
		<path d="M44.1381 40.5337V20.6452H41.9855V19.4951H48.0141V20.6452H45.6467V40.5337H44.1381Z" fill="#FFFFFF"/>
		<path d="M19.5773 19.4951V21.4367C18.2777 21.6474 17.1082 23.1391 16.3115 24.944V19.4951H14.7747V40.5337H16.3115V28.5254C16.6392 25.8209 18.2044 22.8658 19.5773 22.4558V40.528H21.0858V19.4951H19.5773Z" fill="#FFFFFF"/>
		<path d="M75.0444 39.6228V26.9027H77.6152V25.986H75.0444V25.9917V20.5655H77.5926V19.4951H73.5076V40.5337H77.6152V39.6228H75.0444Z" fill="#FFFFFF"/>
		<path d="M9.77453 75.402V55.5704H6.4805L6.5031 75.402H4.97192V54.3633H11.2831V75.402H9.77453Z" fill="#FFFFFF"/>
		<path d="M64.1399 19.4951H65.6768V40.5338H64.1399V19.4951ZM57.1734 39.2526L57.5349 39.19C57.8909 39.133 58.2073 39.0135 58.4729 38.8427C58.7271 38.6833 58.9531 38.4954 59.1509 38.2904C59.343 38.0854 59.5012 37.8805 59.6255 37.6641C59.7385 37.4704 59.8402 37.3054 59.9249 37.1687C60.1735 36.7075 60.3656 36.178 60.5012 35.5801C60.6368 34.9994 60.7273 34.3673 60.7725 33.7069C60.8177 33.0521 60.8233 32.3688 60.7838 31.6742C60.7499 30.9796 60.6651 30.2849 60.5409 29.6244C60.3092 28.3774 59.9306 27.3241 59.4221 26.5042C58.8967 25.6558 58.2808 25.0921 57.5858 24.8416L57.1734 24.6936V39.2526ZM55.6648 19.5178H57.1734V23.384L57.3655 23.4636C57.7723 23.6345 58.1565 23.8224 58.5181 24.016C58.8684 24.2096 59.2017 24.4317 59.5068 24.6878C59.8119 24.9384 60.1057 25.2344 60.3826 25.5818C60.6595 25.9291 60.925 26.3333 61.1793 26.7946C61.394 27.176 61.5917 27.6885 61.7669 28.3148C61.9477 28.9468 62.0833 29.6528 62.1794 30.4102C62.2754 31.1674 62.3149 31.9759 62.3093 32.813C62.3037 33.6443 62.2133 34.4699 62.055 35.267C61.8912 36.0584 61.6482 36.8213 61.3262 37.5274C61.0097 38.2221 60.5916 38.8256 60.0775 39.3267C59.7498 39.6455 59.3204 39.8847 58.8119 40.0441C58.2695 40.2149 57.7327 40.3458 57.2242 40.4313C56.9417 40.4654 56.6366 40.4939 56.3202 40.5223C56.1055 40.5395 55.8908 40.5508 55.6704 40.5565V19.5178H55.6648Z" fill="#FFFFFF"/>
		<path d="M20.8091 70.3801C20.8091 70.3801 21.9392 70.0328 22.6002 69.247C23.0014 68.7688 23.3347 68.1481 23.6116 67.4251C23.8772 66.7133 24.0862 65.9048 24.2331 65.0223C24.3743 64.1454 24.4535 63.2571 24.4591 62.386C24.4648 61.5035 24.3969 60.6551 24.2557 59.8522C24.1088 59.0381 23.8772 58.332 23.5664 57.7626C23.4703 57.6089 23.3743 57.4438 23.2613 57.2502C23.137 57.0338 22.9788 56.8288 22.7867 56.6238C22.5945 56.4189 22.3686 56.2366 22.1086 56.0716C21.8375 55.9008 21.5211 55.7812 21.1708 55.7243L20.8091 55.6616V70.3801ZM19.3005 75.4021V54.3691C19.8373 54.3805 20.3628 54.4204 20.8656 54.4943C21.3685 54.5797 25.9395 55.3713 25.9395 62.1127C25.9395 62.9497 25.9055 63.7582 25.8095 64.5155C25.7135 65.2727 25.5779 65.9789 25.397 66.6108C25.2219 67.2371 25.0241 67.7439 24.8095 68.1311C24.5552 68.5922 24.2896 69.0022 24.0127 69.3439C23.7416 69.6855 23.4477 69.9872 23.1427 70.2378C22.8319 70.4883 22.4985 70.7161 22.1538 70.9097C21.7979 71.1089 21.408 71.2968 21.0012 71.4619L20.8091 71.5417V75.4078H19.3005V75.4021Z" fill="#FFFFFF"/>
		<path d="M34.6915 75.4882C34.5728 75.4882 34.4542 75.4825 34.3299 75.4711C34.0418 75.4483 33.7649 75.4028 33.5163 75.3345C33.3863 75.3003 33.2677 75.2661 33.166 75.2263L33.5502 74.2128C33.635 74.247 33.7028 74.2754 33.7536 74.2925C33.8666 74.3381 34.0079 74.3608 34.1887 74.3608C34.2508 74.3608 34.3186 74.3608 34.3921 74.3494C34.7029 74.3267 34.9684 74.19 35.1774 73.9395C35.3526 73.7345 35.4994 73.4954 35.6069 73.2392C35.7085 72.9943 35.7933 72.7381 35.8441 72.4818C35.895 72.2484 35.9402 72.0605 35.9741 71.9239L35.991 71.8612L33.053 54.3926H34.5502L36.5843 67.8584L36.7368 67.8471L39.1946 54.3926H40.5676L37.3527 72.5957C37.234 73.2505 37.0589 73.8142 36.8272 74.2697C36.6069 74.7024 36.2735 75.0327 35.8046 75.2889C35.635 75.3743 35.4147 75.4369 35.1662 75.4654C35.0079 75.4768 34.8497 75.4882 34.6915 75.4882Z" fill="#FFFFFF"/>
		<path d="M50.1783 74.019L51.653 57.6891L51.879 57.6776L53.0655 74.2239C53.5571 74.3378 54.0543 74.4118 54.5459 74.4004L52.444 54.2842H51.1841L48.7601 73.814C48.0313 73.8026 47.2967 73.962 46.5679 74.4118C46.5679 74.8274 46.5679 75.2374 46.5679 75.6474C49.9127 73.5691 53.2633 77.7257 56.6082 75.6474C56.6082 75.2318 56.6082 74.8274 56.6082 74.4118C54.4611 75.7441 52.3197 74.5257 50.1783 74.019Z" fill="#FFFFFF"/>
		<path d="M71.79 54.3633H73.3269V75.402H71.79V54.3633ZM64.8234 74.1209L65.185 74.0582C65.541 74.0013 65.8574 73.8817 66.123 73.7109C66.3772 73.5515 66.6032 73.3635 66.801 73.1586C66.993 72.9536 67.1513 72.7486 67.2756 72.5323C67.3886 72.3387 67.4903 72.1736 67.575 72.0369C67.8237 71.5757 68.0157 71.0462 68.1514 70.4484C68.287 69.8675 68.3774 69.2356 68.4226 68.5751C68.4678 67.9203 68.4735 67.237 68.4338 66.5424C68.4 65.8477 68.3152 65.1531 68.1909 64.4926C67.9593 63.2457 67.5807 62.1923 67.0722 61.3724C66.5468 60.524 65.9308 59.9603 65.2359 59.7098L64.8234 59.5617V74.1209ZM63.3148 54.3918H64.8234V58.2578L65.0156 58.3376C65.4223 58.5084 65.8066 58.6963 66.1682 58.8899C66.5185 59.0834 66.8519 59.3055 67.1569 59.5617C67.462 59.8123 67.7559 60.1084 68.0328 60.4557C68.3096 60.803 68.5751 61.2073 68.8294 61.6684C69.0441 62.0499 69.2418 62.5624 69.417 63.1887C69.5978 63.8208 69.7334 64.5268 69.8295 65.284C69.9255 66.0414 69.965 66.8498 69.9594 67.6868C69.9538 68.5181 69.8634 69.3437 69.7051 70.1409C69.5413 70.9323 69.2983 71.6953 68.9763 72.4013C68.6599 73.096 68.2418 73.6995 67.7276 74.2006C67.3999 74.5194 66.9704 74.7585 66.4619 74.918C65.9196 75.0888 65.3828 75.2198 64.8743 75.3052C64.5918 75.3394 64.2866 75.3678 63.9703 75.3963C63.7555 75.4133 63.5408 75.4248 63.3205 75.4305V54.3918H63.3148Z" fill="#FFFFFF"/>
		<path d="M11.4751 3.26748C11.7971 3.26748 12.1191 3.26179 12.3113 3.165C12.5599 3.02835 12.6842 2.59562 12.7972 2.1458C12.9498 1.5935 13.2774 1.20632 14.1533 1.37144V1.86111C13.7295 1.83264 13.5769 1.91235 13.447 2.35077C13.317 2.81767 13.1814 3.23332 12.8933 3.49524L14.2945 5.5507V5.6532H13.4922L12.2718 3.77424C12.091 3.84256 11.6784 3.84256 11.4751 3.84256V5.6532H10.7632V1.36575H11.4751V3.26748Z" fill="#FFFFFF"/>
		<path d="M16.1929 5.66439H15.5093V5.5619L17.3737 1.34277H17.6789L19.5491 5.5619V5.66439H18.8597L17.532 2.52709H17.5263L16.1929 5.66439Z" fill="#FFFFFF"/>
		<path d="M26.7418 3.62097V5.03303C27.0809 5.03303 27.4594 5.03872 27.8041 5.03303C28.3408 5.03303 28.6064 4.70849 28.6064 4.327C28.6064 3.93412 28.3408 3.62097 27.8041 3.62097H26.7418ZM26.7418 3.01742H27.7984C28.8098 3.01742 29.2957 3.5868 29.2957 4.31561C29.2957 5.05012 28.7985 5.65935 27.7984 5.65935H26.0413V1.36621H28.9454V1.99823H26.7418V3.01742Z" fill="#FFFFFF"/>
		<path d="M33.7423 5.66505V3.74623H31.793V5.66505H31.0868V1.36621H31.793V3.09144H33.7423V1.36621H34.4543V5.66505H33.7423Z" fill="#FFFFFF"/>
		<path d="M41.1552 5.66505H40.449V1.36621H41.1552V5.66505ZM38.0929 3.41029H37.2397V5.02734C37.5449 5.02734 37.8612 5.03303 38.172 5.03303C38.7144 5.03303 39.0647 4.77112 39.0986 4.27006C39.1269 3.78608 38.7935 3.4046 38.2907 3.4046H38.0929V3.41029ZM37.2397 1.58258V2.77258H38.285C39.2908 2.77258 39.8501 3.52987 39.771 4.35547C39.7089 5.07858 39.1551 5.66505 38.285 5.66505H36.5448V1.36621H37.2397V1.58258Z" fill="#FFFFFF"/>
		<path d="M52.1108 5.04424H54.0882L53.0769 2.51048H53.0712L52.1108 5.04424ZM51.5344 6.31396H50.9581V5.05562H51.4045L52.9356 1.32617H53.2351L54.8171 5.05562H55.2804V6.31396H54.7098V5.66487H51.5401V6.31396H51.5344Z" fill="#FFFFFF"/>
		<path d="M58.7155 5.06148C59.5122 5.06148 60.1789 4.51486 60.1789 3.51275C60.1789 2.53341 59.5235 1.95834 58.7212 1.95834C57.9188 1.95834 57.2578 2.51634 57.2578 3.51275C57.2635 4.51486 57.9133 5.06148 58.7155 5.06148ZM58.7043 5.73904C57.5347 5.73904 56.5403 4.91913 56.5403 3.51845C56.5403 2.11776 57.5573 1.29785 58.7155 1.29785C59.8795 1.29785 60.8852 2.11776 60.8852 3.51845C60.8852 4.82233 59.9925 5.73904 58.7043 5.73904Z" fill="#FFFFFF"/>
		<path d="M66.4562 1.35449H66.716V5.66472H66.0041V2.97723L64.7724 4.56581H64.6763L63.439 2.97723V5.66472H62.7271V1.35449H62.9926L64.7272 3.57509L66.4562 1.35449Z" fill="#FFFFFF"/>
		<path d="M43.4943 5.67041H43.2513V1.36588H43.9576V2.93169L43.9067 4.24696L46.4945 1.35449H46.7487V5.66472H46.0481V4.10461L46.099 2.74379L43.4943 5.67041Z" fill="#FFFFFF"/>
		<path d="M46.1552 0.164367C45.4773 0.733749 44.7993 -0.405016 44.1212 0.164367C44.1212 0.278242 44.1212 0.602791 44.1212 0.710974C44.7993 0.141591 45.4773 1.28036 46.1552 0.710974C46.1552 0.597097 46.1552 0.278242 46.1552 0.164367Z" fill="#FFFFFF"/>
		<path d="M22.2556 4.23589L20.7075 1.45731V1.36621H21.4873L22.6116 3.50709H22.6342L23.6512 1.36621H24.4083V1.44023L22.7302 4.82236C22.3968 5.56256 21.9618 5.9839 21.0295 5.6138L21.1256 5.05581C21.5663 5.2494 21.8319 5.11844 22.0296 4.69141L22.2556 4.23589Z" fill="#FFFFFF"/>
	</symbol>

	<symbol id="icon-tg" viewBox="0 0 22 18" fill="none">
		<path d="M22 1.44622C21.8844 1.94953 21.7641 2.45183 21.6541 2.95632C20.9432 6.21875 20.2346 9.48168 19.5249 12.7444C19.2192 14.1495 18.9158 15.5552 18.603 16.9588C18.5624 17.1412 18.4899 17.3224 18.4006 17.4876C18.1615 17.9292 17.7678 18.0957 17.2832 17.9467C17.0623 17.8787 16.8397 17.7793 16.653 17.6465C15.0719 16.5215 13.4989 15.3855 11.9234 14.253C11.8664 14.212 11.8079 14.1728 11.7399 14.1257C11.6876 14.1696 11.6382 14.2072 11.5931 14.2494C10.7797 15.0104 9.96622 15.7713 9.1542 16.5339C8.91227 16.761 8.63696 16.8977 8.27512 16.8772C8.30507 16.4379 8.33256 16.0127 8.36336 15.5878C8.4279 14.6981 8.49409 13.8085 8.55983 12.9189C8.57019 12.7788 8.60741 12.6354 8.58869 12.4993C8.51791 11.9864 8.8116 11.689 9.17035 11.3751C12.0869 8.82213 14.9895 6.25373 17.8963 3.68988C17.9389 3.65231 17.9941 3.62065 18.0193 3.57374C18.0653 3.48769 18.0932 3.39231 18.1288 3.3008C18.0307 3.27375 17.9221 3.20659 17.8365 3.22797C17.6602 3.27189 17.4834 3.34309 17.3288 3.43786C13.5401 5.76116 9.75418 8.08879 5.96864 10.4171C5.86231 10.4825 5.77103 10.5187 5.63452 10.4764C4.02852 9.97852 2.41891 9.49203 0.813018 8.99373C0.618731 8.93343 0.42536 8.84333 0.25913 8.72854C-0.0533439 8.5128 -0.0909645 8.19695 0.188585 7.94189C0.393351 7.75505 0.641292 7.58925 0.900055 7.4883C2.25308 6.96035 3.61532 6.4553 4.97499 5.94378C10.1402 4.00084 15.3055 2.05785 20.4722 0.118797C20.6366 0.0570996 20.8158 0.0164929 20.9911 0.00327607C21.4558 -0.0317064 21.8006 0.215252 21.9427 0.658833C21.9594 0.711081 21.9808 0.76198 22 0.813498V1.44622Z" fill="currentColor"/>
	</symbol>

	<symbol id="icon-vk" viewBox="0 0 24 14" fill="none">
		<path fill-rule="evenodd" clip-rule="evenodd" d="M7.92898 0.972652C8.10115 0.584837 8.37473 0.344025 8.73062 0.254702C9.16196 0.146473 9.60749 0.0718104 10.0505 0.0435314C11.0907 -0.0228801 12.1332 -0.0395431 13.1615 0.187249C13.7311 0.312863 14.0157 0.623691 14.0255 1.2266C14.0416 2.20659 14.0074 3.18738 14.004 4.16785C14.002 4.75739 14.0181 5.347 14.0263 5.93653C14.0265 5.95656 14.028 5.97675 14.0314 5.99637C14.0915 6.33805 14.1669 6.70551 14.5144 6.83096C14.8454 6.95041 15.0802 6.67058 15.2833 6.44724C16.2368 5.39923 16.9288 4.1717 17.5368 2.89242C17.7881 2.36369 18.0015 1.81565 18.2251 1.27331C18.4264 0.784953 18.6494 0.622569 19.158 0.618804C20.4242 0.609431 21.6902 0.600859 22.9563 0.591967C23.9683 0.584837 24.216 0.947898 23.8219 1.90706C23.3671 3.01378 22.6551 3.9578 21.9638 4.9124C21.4815 5.5786 20.977 6.22813 20.5052 6.90194C19.8565 7.82866 19.895 8.16096 20.6751 8.9748C21.5014 9.83663 22.3396 10.6875 23.1392 11.575C23.4252 11.8927 23.6383 12.2896 23.8404 12.6749C24.1345 13.2355 23.9477 13.6705 23.3542 13.8596C23.1713 13.9179 22.9729 13.9453 22.7809 13.9493C21.6806 13.9722 20.5802 13.9899 19.4797 13.9973C18.809 14.0018 18.2498 13.6901 17.7814 13.237C17.2862 12.7579 16.8425 12.2228 16.369 11.7193C16.1327 11.4681 15.8971 11.2107 15.6312 10.9953C15.1054 10.5696 14.6179 10.6683 14.3669 11.3086C14.1852 11.7717 14.082 12.2868 14.0459 12.7866C13.9796 13.7033 13.722 13.9885 12.8262 13.9972C11.7543 14.0075 10.6879 14.0069 9.64552 13.6772C7.81487 13.0981 6.36419 11.9683 5.16323 10.4669C3.42128 8.28929 2.10513 5.84176 0.893496 3.32918C0.617421 2.75671 0.356467 2.17615 0.103852 1.59223C-0.142683 1.02208 0.0528772 0.686978 0.65686 0.671036C1.74713 0.642196 2.83803 0.635868 3.92861 0.624171C4.5262 0.617763 4.9174 0.877641 5.15505 1.47687C5.79925 3.10191 6.60924 4.63938 7.64168 6.043C7.82726 6.29535 8.05119 6.53023 8.29554 6.72185C8.65634 7.00472 9.00506 6.90274 9.15292 6.4631C9.2721 6.10861 9.3703 5.7276 9.37779 5.35629C9.39727 4.38792 9.42011 3.41273 9.33188 2.45101C9.24404 1.49273 8.94045 1.23597 7.92898 0.972652Z" fill="currentColor"/>
	</symbol>

	<symbol id="icon-ya" viewBox="0 0 20 20" fill="none">
		<path d="M18.7576 9.59456C18.7592 9.59456 18.7604 9.59456 18.762 9.59456C18.8736 9.59456 18.98 9.54776 19.0556 9.46576C19.1324 9.38256 19.1704 9.27096 19.1604 9.15816C18.7588 4.74096 15.2616 1.24256 10.844 0.840156C10.732 0.831356 10.6192 0.867756 10.536 0.944956C10.4528 1.02176 10.4064 1.13016 10.4076 1.24336C10.4772 7.11376 11.2516 9.51256 18.7576 9.59456ZM18.7576 10.4058C11.2516 10.4878 10.4776 12.8866 10.408 18.757C10.4068 18.8702 10.4532 18.9786 10.5364 19.0554C10.6108 19.1238 10.708 19.1618 10.808 19.1618C10.82 19.1618 10.8324 19.1614 10.8444 19.1602C15.262 18.7578 18.7592 15.2598 19.1604 10.8422C19.1704 10.7294 19.1328 10.6178 19.0556 10.5346C18.9784 10.4514 18.8708 10.4102 18.7576 10.4058ZM9.12919 0.842156C4.72559 1.25616 1.23959 4.75376 0.839986 9.15896C0.829986 9.27176 0.867586 9.38336 0.944786 9.46656C1.02039 9.54856 1.12719 9.59496 1.23839 9.59496C1.23999 9.59496 1.24159 9.59496 1.24319 9.59496C8.72439 9.50896 9.49679 7.11136 9.56719 1.24496C9.56839 1.13176 9.52159 1.02296 9.43839 0.946156C9.35439 0.869356 9.24199 0.831756 9.12919 0.842156ZM1.24279 10.4054C1.11839 10.3914 1.02079 10.4506 0.944386 10.5338C0.867586 10.617 0.829586 10.7286 0.839586 10.8414C1.23919 15.2466 4.72559 18.7442 9.12919 19.1582C9.14159 19.1594 9.15439 19.1598 9.16679 19.1598C9.26679 19.1598 9.36359 19.1222 9.43799 19.0538C9.52118 18.977 9.56799 18.8682 9.56679 18.755C9.49639 12.889 8.72439 10.4914 1.24279 10.4054Z" fill="currentColor"/>
	</symbol>

	<symbol id="icon-youtube" viewBox="0 0 24 18" fill="none">
		<path d="M9.1438 3.60143C10.283 4.41406 11.4605 5.30594 12.5913 6.1643C13.7333 7.03224 14.8921 7.86721 16.001 8.70696C14.013 10.0445 12.0166 11.3342 10.0015 12.6526C9.71854 12.8366 9.44961 13.0605 9.1438 13.2014V3.60143ZM0.00673312 4.98335V13.0917C0.00673312 14.0456 -0.0388403 14.9471 0.177138 15.6146C0.392126 16.2774 0.780491 16.8109 1.2387 17.1978C1.71376 17.5972 2.2651 17.8888 3.0765 17.9584C3.84035 18.0228 4.73498 17.9789 5.61524 17.9789H18.4036C19.2635 17.9789 20.1344 18.038 20.9616 17.9584C22.4249 17.8176 23.4325 16.8449 23.8223 15.5759C24.0339 14.888 23.9927 13.9864 23.9927 13.0525V4.94304C23.9927 3.98185 24.0537 3.15363 23.8223 2.41964C23.6163 1.76576 23.2561 1.2281 22.7811 0.818176C22.3154 0.416631 21.7765 0.108274 20.9616 0.0370744C20.1576 -0.0320311 19.2591 0.0166569 18.4229 0.0166569H5.63407C4.78898 0.0166569 3.8141 -0.0304605 3.03886 0.0370744C1.59933 0.162721 0.524388 1.17941 0.15881 2.44006C-0.0487476 3.15363 0.00673312 4.06823 0.00673312 4.98335Z" fill="currentColor"/>
	</symbol>

	<symbol id="logo-sminex" viewBox="0 0 88 20" fill="none">
		<path d="M74.2217 19.7287L79.7028 13.2595L74.4228 5.82743H77.2891C78.6971 5.82743 78.496 6.39533 80.9348 9.82743L81.7645 11.0126L85.0834 6.00027C85.184 5.85212 85.36 5.80273 85.5108 5.80273H87.2205L82.2423 11.6793L88 19.7287H85.3097C83.5245 19.7534 83.8514 19.0373 81.488 15.7534L80.1805 13.9262L76.384 19.5064C76.2834 19.6546 76.1325 19.704 75.9314 19.704H74.2217V19.7287Z" fill="#FFFFFF" fill-opacity="0.2"/>
		<path d="M68.464 20C66.528 20 64.5166 19.4568 63.2595 17.9259C62.0777 16.4938 61.6503 14.716 61.6 12.9135C61.5749 10.6666 62.1532 8.86416 63.36 7.50614C64.5669 6.14812 66.2263 5.48145 68.3383 5.48145C69.344 5.48145 70.2492 5.62959 71.0286 5.92589C71.808 6.22218 72.4115 6.61725 72.8892 7.13577C73.3669 7.65429 73.7189 8.24688 73.9452 8.91354C74.1715 9.58021 74.2972 10.3209 74.3223 11.1111C74.3223 11.5308 74.2972 11.9259 74.2217 12.2716C74.2217 12.321 74.1715 12.3456 74.1463 12.3456H65.296C65.3463 14.5926 65.6983 16.1975 66.352 17.2098C67.0057 18.2222 68.0869 18.716 69.6206 18.716C71.2046 18.716 72.4366 18.2716 73.6435 17.358C73.8446 17.5308 74.0709 18 73.6435 18.3703C72.5372 19.358 70.3749 20 68.464 20ZM65.2709 11.679L71.0035 11.2592C71.0286 9.38268 70.9532 6.29626 68.4137 6.29626C65.7486 6.29626 65.3463 9.67898 65.2709 11.679Z" fill="#FFFFFF" fill-opacity="0.2"/>
		<path d="M59.3875 18.1231V9.975C59.3875 7.18487 58.3063 5.50586 55.5155 5.50586C53.5543 5.50586 51.6938 6.41944 50.3612 7.77746C50.3612 6.69104 50.1852 5.80215 49.104 5.80215H46.8412L46.9669 7.3824V18.0985L46.8412 19.7034H50.512L50.3863 18.0985V8.5182C51.4423 7.72808 52.4229 7.33302 53.8309 7.33302C55.616 7.33302 55.968 8.96265 55.968 10.7651V17.8268C55.968 19.012 56.2446 19.7034 57.2503 19.7034H59.5132L59.3875 18.1231Z" fill="#FFFFFF" fill-opacity="0.2"/>
		<path d="M43.296 1.77778C43.296 2.76544 42.4663 3.55556 41.4606 3.55556C40.4548 3.55556 39.6251 2.76544 39.6251 1.77778C39.6251 0.790127 40.4548 0 41.4606 0C42.4663 0 43.296 0.790127 43.296 1.77778Z" fill="#FFFFFF" fill-opacity="0.2"/>
		<path d="M39.7509 5.80203L39.8766 7.38228V18.0983L39.7509 19.7033H43.4217L43.296 18.0983V7.65388C43.296 6.59215 43.0949 5.77734 42.0137 5.77734H39.7509V5.80203Z" fill="#FFFFFF" fill-opacity="0.2"/>
		<path d="M36.2811 18.1231V9.975C36.2811 7.16018 35.2 5.50586 32.4091 5.50586C30.0708 5.50586 28.4868 6.66635 27.2297 7.975C26.7771 6.41944 25.6708 5.50586 23.5588 5.50586C21.5726 5.50586 19.9634 6.41944 18.656 7.80215V7.77746C18.656 6.69104 18.48 5.80215 17.3988 5.80215H15.136L15.2617 7.3824V18.0985L15.136 19.7034H18.8068L18.6811 18.0985V8.5182C19.712 7.67869 20.944 7.33302 21.9246 7.33302C23.8606 7.33302 24.0617 9.28363 24.0617 10.7651V18.0985L23.936 19.7034H27.6068L27.4811 18.0985V8.5182C28.3611 7.77746 29.5931 7.33302 30.7497 7.33302C32.7611 7.33302 32.8868 9.48117 32.8868 10.7651V17.8268C32.8868 19.1602 33.264 19.7034 34.1691 19.7034H36.432L36.2811 18.1231Z" fill="#FFFFFF" fill-opacity="0.2"/>
		<path d="M5.85833 20C4.17376 20 1.68462 19.5309 0.176049 18.6914C0.452621 18.0741 0.98062 17.6049 1.73491 18C3.09262 18.6914 4.45033 19.0123 5.9589 19.0123C8.12119 19.0123 9.70519 17.8272 9.60462 15.679C9.37833 11.1852 -0.0250925 10.5185 5.03299e-05 5.11111C0.0251932 1.13581 3.67091 0 7.16576 0C8.85033 0 10.5098 0.320994 12.144 0.962969C11.8675 1.60494 11.3898 2.14815 10.56 1.75309C9.40347 1.20988 8.2469 0.962969 7.0149 0.962969C4.87776 0.962969 3.6709 2.09877 3.6709 3.77778C3.64576 8.07408 13.2 8.71605 13.376 14.2963C13.4766 18.3704 10.0069 20 5.85833 20Z" fill="#FFFFFF" fill-opacity="0.2"/>
	</symbol>

	<symbol id="logo-whitemark" viewBox="0 0 86 14" fill="none">
		<path d="M74.7475 3.87603C75.1865 3.87603 75.5707 3.93388 75.8451 3.93388L75.406 5.78512C75.1316 5.72727 74.8023 5.66942 74.4731 5.66942C74.0889 5.66942 73.7048 5.72727 73.4303 5.84297V14L71.3448 13.5372V4.5124C72.2229 4.16529 73.4303 3.87603 74.7475 3.87603ZM64.7043 3.87603C66.8446 3.87603 68.052 4.7438 68.052 7.05785V12.4959C67.5581 12.7851 66.2958 13.1322 65.0335 13.1322C62.509 13.1322 61.2468 12.0909 61.2468 10.2975C61.2468 7.86777 63.6067 7.40496 66.1312 7.2314V6.7686C66.1312 5.84298 65.5275 5.49587 64.5396 5.49587C63.7713 5.49587 62.7835 5.78513 62.1798 6.01653L61.6309 4.5124C62.3444 4.22314 63.4969 3.87603 64.7043 3.87603ZM40.5568 3.81818C42.8618 3.81818 44.124 5.43802 44.124 7.86777C44.1789 8.09917 44.1789 8.38843 44.124 8.61983L38.7458 9.3719C38.9104 10.6446 39.8433 11.3388 41.0507 11.3388C41.8739 11.3388 42.8069 11.1074 43.3557 10.7603L43.9594 12.438C43.2459 12.843 42.0934 13.0744 40.8861 13.0744C38.142 13.0744 36.6602 11.1653 36.6602 8.44628C36.6602 5.72727 38.0872 3.81818 40.5568 3.81818ZM32.8735 1.44628V4.04959H34.465V5.72727H32.8735V10.124C32.8735 10.8182 33.3125 11.1074 33.8613 11.1074C34.0808 11.1074 34.3004 11.0496 34.465 10.9917V12.843C34.1906 12.9008 33.6419 13.0165 33.1479 13.0165C31.5564 13.0165 30.7881 12.0909 30.7881 10.2397V5.72727H29.7453V4.04959H30.7881V2.08265L32.8735 1.44628ZM16.9581 0V4.28099C17.452 4.04959 18.1106 3.87603 18.7143 3.87603C20.69 3.87603 21.7876 4.91735 21.7876 6.8843V12.9008H19.7021V7.1157C19.7021 6.13223 19.1534 5.66942 18.1655 5.66942C17.7265 5.66942 17.2874 5.78513 16.9581 6.01653V12.9587H14.8726V0H16.9581ZM55.5941 3.87603C57.46 3.87603 58.5576 5.03306 58.5576 6.82645V12.9587H56.4722V7C56.4722 6.13223 55.9234 5.61157 55.1002 5.61157C54.5514 5.61157 54.1672 5.78512 53.8379 6.07438V12.9008H51.6976V6.8843C51.6976 6.07438 51.1488 5.61157 50.2158 5.61157C49.7219 5.61157 49.3377 5.66942 49.0633 5.84297V12.9008H46.9779V4.5124C47.856 4.16529 48.9535 3.87603 50.106 3.87603C51.4781 3.87603 52.3012 4.33884 52.7952 4.80165C53.344 4.39669 54.3318 3.87603 55.5941 3.87603ZM2.14038 4.04959L3.29281 9.4876C3.45745 10.124 3.51237 10.9339 3.51237 10.9339H3.56722C3.56722 10.9339 3.67699 10.124 3.84163 9.4876L5.21362 4.04959H7.13452L8.50651 9.4876C8.67115 10.124 8.78092 10.9339 8.78092 10.9339C8.78092 10.9339 8.83577 10.124 9.00041 9.4876L10.2078 4.04959H12.3481L9.8785 12.9008H7.68327L6.42106 7.86777C6.25642 7.28926 6.2015 6.53719 6.2015 6.53719H6.14665C6.14665 6.53719 6.03688 7.28926 5.87223 7.86777L4.60994 12.9008H2.41471L0 4.04959H2.14038ZM27.0562 4.04959V12.9008H24.9707V4.04959H27.0562ZM80.4001 0V7.92562H80.455L83.1991 4.04959H85.6687L82.6502 8.21487L85.8333 12.9008H83.4735L80.455 8.44628H80.4001V12.9008H78.3147V0H80.4001ZM66.186 8.61983C64.6494 8.67768 63.2774 8.85124 63.2774 10.1818C63.2774 10.9917 63.8811 11.5124 64.9787 11.5124C65.4177 11.5124 65.9665 11.4545 66.186 11.3388V8.61983ZM40.5568 5.49587C39.4592 5.49587 38.6909 6.36364 38.636 7.98347L42.1484 7.46281C42.1484 6.13223 41.4898 5.49587 40.5568 5.49587Z" fill="#FFFFFF" fill-opacity="0.2"/>
	</symbol>

	<symbol id="icon-call" viewBox="0 0 24 24" fill="none">
		<path d="M21.2347 15.4405C19.8878 15.4405 18.5653 15.2298 17.312 14.8157C16.6979 14.6062 15.943 14.7984 15.5682 15.1833L13.0945 17.0507C10.2257 15.5193 8.45863 13.7528 6.94819 10.9056L8.76061 8.49633C9.23149 8.02608 9.40039 7.33915 9.19804 6.69462C8.7821 5.43478 8.57081 4.11289 8.57081 2.76539C8.57086 1.79194 7.77892 1 6.80554 1H2.76533C1.79194 1 1 1.79194 1 2.76533C1 13.9229 10.0772 23 21.2347 23C22.2081 23 23.0001 22.2081 23.0001 21.2347V17.2058C23 16.2324 22.2081 15.4405 21.2347 15.4405Z" fill="currentColor"/>
	</symbol>
</svg>